<?xml version="1.0" encoding="UTF-8" standalone="no"?>
<svg
   xmlns:dc="http://purl.org/dc/elements/1.1/"
   xmlns:cc="http://creativecommons.org/ns#"
   xmlns:rdf="http://www.w3.org/1999/02/22-rdf-syntax-ns#"
   xmlns:svg="http://www.w3.org/2000/svg"
   xmlns="http://www.w3.org/2000/svg"
   xmlns:sodipodi="http://sodipodi.sourceforge.net/DTD/sodipodi-0.dtd"
   xmlns:inkscape="http://www.inkscape.org/namespaces/inkscape"
   id="Laag_1"
   data-name="Laag 1"
   viewBox="0 0 380.97193 165.63487"
   version="1.1"
   inkscape:version="0.91 r13725"
   sodipodi:docname="XGLogoBW.svg"
   width="380.97192"
   height="165.63487">
  <metadata
     id="metadata4200">
    <rdf:RDF>
      <cc:Work
         rdf:about="">
        <dc:format>image/svg+xml</dc:format>
        <dc:type
           rdf:resource="http://purl.org/dc/dcmitype/StillImage" />
        <dc:title></dc:title>
      </cc:Work>
    </rdf:RDF>
  </metadata>
  <sodipodi:namedview
     pagecolor="#ffffff"
     bordercolor="#666666"
     borderopacity="1"
     objecttolerance="10"
     gridtolerance="10"
     guidetolerance="10"
     inkscape:pageopacity="0"
     inkscape:pageshadow="2"
     inkscape:window-width="1920"
     inkscape:window-height="1013"
     id="namedview4198"
     showgrid="false"
     fit-margin-top="0"
     fit-margin-left="0"
     fit-margin-right="0"
     fit-margin-bottom="0"
     inkscape:zoom="2.3125505"
     inkscape:cx="184.88091"
     inkscape:cy="88.734785"
     inkscape:window-x="-9"
     inkscape:window-y="-9"
     inkscape:window-maximized="1"
     inkscape:current-layer="Laag_1" />
  <defs
     id="defs4176">
    <style
       id="style4178">
      .cls-1 {
        fill: #fff;
      }

      .cls-1, .cls-2 {
        fill-rule: evenodd;
      }

      .cls-2 {
        fill: #2b388f;
      }
    </style>
  </defs>
  <path
     class="cls-2"
     d="m 337.77193,110.0371 0,-0.18 c -2.24,-3.01 -4.44,-6.06 -6.65,-9.1 0.12,-0.859999 0.41,-1.839999 0.67,-2.749999 3.48,-12.1 7.07,-24.47 10.44,-36.55 -0.26,-0.34 -0.76,-0.74 -0.86,-1.04 0.01,0.04 0.01,0.08 0.06,0.06 1.93,0.96 2.99,2.79 4.57,4.09 10.13,-12.3 20.49,-24.5 30.63,-36.68 1.47,-1.76 2.96,-3.49 4.34,-5.31 -7.56,-5.21 -15.15,-10.32 -22.58,-15.4399996 -0.4,-0.28 -0.71,-0.42 -1.22,-0.61 -7.71,-2.93 -17.23,-4.74 -27.22,-5.5 -4.6,-0.34000004 -9.16,-0.64000004 -13.67,0 -8.36,1.2 -15.02,4.5 -21.11,7.93 -1.42,-1.43 -2.87,-2.94 -4.33,-4.45 -0.42,-0.44 -1.01,-1.28 -1.52,-1.4 -0.57,-0.13 -1.49,0 -2.32,0 l -72.13,0 c -0.7,3.76 -1.24,7.6599996 -2.01,11.3499996 -1.2,-3.83 -2.49,-7.5599996 -3.72,-11.3499996 -15.85,0.08 -31.69,-0.13 -47.48,0 -0.14,4.03 -0.32,8.3199996 -0.49,12.3299996 -1.14,-1.12 -2.24,-2.33 -3.48,-3.42 -3.72,-3.2899996 -8.16,-6.1099996 -13.18,-8.0599996 -6.78,-2.63 -14.96,-4.26000004 -24.35,-3.91000004 -15.63,0.59 -25.380002,7.92000004 -31.120002,18.30999964 -0.81,1.46 -1.57,3 -2.5,4.46 -0.18,-5.53 -0.27,-11.17 -0.43,-16.7199996 -2.58,-1.63 -5.7,-2.57 -9.03,-3.35 -3.3,-0.78 -6.88,-1.37 -10.62,-1.77000004 -7.5,-0.82 -15.97,-1.18 -23.55,-0.3 -7.49,0.87000004 -13.65,2.86000004 -18.25,6.53000004 -2.32,1.85 -4.32,3.9699996 -6.47,5.9199996 -3.26,2.96 -6.53,5.96 -9.7,8.91 -1.08,1.01 -2.26,1.94 -3.23,2.99 -1.98,2.15 -3.52,4.69 -4.45999999,7.93 -0.96,3.33 -1.03,7.58 -0.36,11.16 0.61999999,3.36 1.72999999,6.68 2.92999999,9.52 2.39,5.7 5.68,10.89 9.7,15.08 4.05,4.2 8.86,7.84 14.71,10.12 0.48,0.86 0.73,1.94 1.1,2.93 1.52,4.12 3.03,8.26 4.52,12.39 0.61,1.7 1.36,3.47 1.83,5.19 -1.85,3.039999 -3.58,5.969999 -5.37,8.969999 -0.29,0.49 -0.62,1.02 -0.79,1.59 -0.2,0.62 -0.26,1.31 -0.43,2.02 14.62,7.22 29.45,14.25 44.12,21.42 -0.57,0.68 -1.54,1.18 -2.08,1.76 -0.11,0.13 -0.08,0.18 -0.18,0.38 -0.59,1.11 -0.93,2.45 -1.4,3.72 -3.24,8.75 -6.65,17.78 -9.83,26.36 22.92,0 47.250002,0 70.000002,0 0.42,0 0.76,-0.55 1.1,-0.85 0.73,-0.65 1.36,-1.14 2.01,-1.7 0.33,-0.29 0.63,-0.66 1.04,-0.74 1.47,0.82 3,1.69 4.46,2.51 0.52,0.29 1.04,0.7 1.53,0.79 0.72,0.13 1.69,0 2.56,0 53.84,0 108.26,0 161.71,0 11.43,-18.45 22.71,-37.06 34.12,-55.53 z"
     id="path4180"
     style="fill:#ffffff;fill-rule:evenodd"
     inkscape:connector-curvature="0" />
  <path
     class="cls-1"
     d="m 67.491928,27.357101 c -0.11,6.87 -0.04,13.91 -0.13,20.81 -7.24,-0.57 -15.31,-1.6 -23.19,-0.73 -1.83,0.2 -5.6,0.51 -5.86,2.32 -0.16,1.08 0.82,2.23 1.59,2.98 2.24,2.2 6.26,3.23 9.76,3.91 5.21,1 10.62,1.73 15.19,3.05 9.62,2.75 16.17,7.85 19.77,16.66 0.91,2.21 1.7,4.52 1.95,7.2 0.27,2.92 -0.11,5.52 -1.16,7.69 -1.86,3.84 -5.69,6.32 -10.37,7.81 -4.75,1.509999 -10.36,1.969999 -16.41,1.709999 -5.6,-0.24 -10.89,-1.309999 -15.68,-2.499999 -1.86,-4.88 -3.74,-9.73 -5.56,-14.65 4.09,0.67 8.5,1.28 13.12,1.52 2.09,0.11 4.7,0.19 7.02,-0.06 2.05,-0.23 4.72,-0.64 4.94,-2.44 0.17,-1.29 -0.71,-2.24 -1.53,-2.75 -1.73,-1.08 -4.07,-1.56 -6.34,-2.07 -2.31,-0.52 -4.76,-1.02 -6.9,-1.47 -4.46,-0.93 -9.31,-2.12 -13.24,-3.54 -12.27,-4.44 -21.21,-12.3 -24.35,-25.93 -0.58,-2.49 -0.88,-5.19 -0.61,-7.57 0.82,-7.18 6.05,-11.06 12.08,-13.06 3.16,-1.05 6.65,-1.67 10.56,-2.01 6.7,-0.6 14.28,-0.11 20.56,0.61 5.15,0.59 10.07,1.4 14.77,2.5 z"
     id="path4182"
     style="fill:#000000;fill-rule:evenodd"
     inkscape:connector-curvature="0" />
  <path
     class="cls-1"
     d="m 367.12193,27.907101 c 0.3,0.05 -0.1,0.3 -0.18,0.36 -6.95,8.14 -14.03,16.17 -21.05,24.29 -0.2,0.24 -0.39,0.6 -0.73,0.67 -2.89,-1.32 -6.41,-2.14 -10.26,-2.2 -3.9,-0.06 -7.54,0.79 -10.37,2.02 -5.76,2.49 -9.94,6.74 -13.31,11.47 -1.58,2.23 -3.51,5.13 -3.9,8.54 -0.72,6.3 6.16,6.93 11.71,5.79 1.71,-0.35 3.36,-0.8 4.83,-1.34 3.04,-1.13 5.68,-2.67 8.17,-4.1 -2.15,8.19 -4.38,16.29 -6.53,24.47 -6.26,1.32 -13.31,2.259999 -20.57,1.84 -10.46,-0.62 -19.01,-3.84 -21.24,-12.57 -0.8,-3.13 -0.69,-6.66 -0.06,-10.07 1.15,-6.2 3.59,-11.59 6.11,-16.42 2.59,-4.96 5.37,-9.6 8.73,-13.79 8.3,-10.35 19.18,-18.39 34.85,-21.42 3.2,-0.62 6.53,-0.87 10.19,-1.04 8.81,-0.41 17.19,1.26 23.62,3.48 z"
     id="path4184"
     style="fill:#000000;fill-rule:evenodd"
     inkscape:connector-curvature="0" />
  <path
     class="cls-1"
     d="m 114.23193,25.097101 c 2.89,-0.14 6.32,0.14 9.03,0.48 8.28,1.05 15.35,4.01 20.87,7.69 3.92,2.61 7.13,5.57 9.95,9.09 5.45,6.84 9.77,15.78 9.64,28.38 -0.06,5.9 -1.71,11.01 -3.91,15.13 -2.15,4.04 -5.26,7.45 -9.15,9.89 -3.97,2.48 -8.72,4 -14.71,4.269999 -6.19,0.28 -11.61,-0.789999 -16.42,-2.499999 -4.66,-1.65 -8.8,-4.07 -12.32,-6.71 -7.330002,-5.49 -12.850002,-12.64 -16.720002,-21.3 -1.91,-4.29 -3.48,-9.46 -3.91,-15.14 -0.96,-12.86 4.27,-21.21 12.2,-25.63 4.040002,-2.25 9.160002,-3.66 15.320002,-3.66 l 0.12,0 z"
     id="path4186"
     style="fill:#000000;fill-rule:evenodd"
     inkscape:connector-curvature="0" />
  <path
     class="cls-2"
     d="m 121.01193,55.237101 c -1.55,0.79 -2.81,1.77 -3.85,2.87 -2.06,2.19 -4.12,5.18 -4.08,9.34 0.03,4.15 1.91,7.23 4.02,9.34 2.23,2.22 5.21,4.09 9.34,4.09 5.92,0 9.52,-4.36 11.59,-8.48 0.77,-1.54 1.39,-3.21 1.59,-5.12 0.46,-4.4 -1.39,-7.55 -3.54,-9.71 -2.15,-2.15 -5.54,-3.97 -9.7,-3.72 -2,0.12 -3.85,0.64 -5.37,1.41 z"
     id="path4188"
     style="fill:#ffffff;fill-rule:evenodd"
     inkscape:connector-curvature="0" />
  <path
     class="cls-1"
     d="m 171.66193,26.917101 36.19,0 c 4.47,15.43 9.12,30.67 13.61,46.07 2.59,-15.29 5.03,-30.73 7.57,-46.07 l 23.07,0 c -4.63,23.74 -9.38,47.37 -13.97,71.16 l -29.11,0 c -0.31,-0.25 -0.35,-0.7 -0.49,-1.04 -4.49,-10.95 -8.98,-22.21 -13.42,-33.32 -0.48,11.4 -0.88,22.88 -1.28,34.36 l -19.41,0 c -0.96,-23.64 -1.82,-47.37 -2.81,-70.98 0,-0.09 0,-0.17 0.06,-0.18 z"
     id="path4190"
     style="fill:#000000;fill-rule:evenodd"
     inkscape:connector-curvature="0" />
  <path
     class="cls-1"
     d="m 264.05193,26.917101 28.56,0 c -8.41,23.76 -16.91,47.41 -25.33,71.16 l -21.05,0 c 5.93,-23.62 11.78,-47.33 17.69,-70.98 0,-0.1 0.05,-0.15 0.13,-0.18 z"
     id="path4192"
     style="fill:#000000;fill-rule:evenodd"
     inkscape:connector-curvature="0" />
  <path
     class="cls-1"
     d="m 55.651928,116.0871 c 15.37,-0.12 31.22,-0.06 46.870002,-0.06 1.07,0 2.25,-0.16 3.11,0 0.35,0.07 0.83,0.43 1.29,0.67 6,3.32 12.44,6.76 18.31,10.07 1.26,-0.81 2.31,-1.79 3.42,-2.68 2.74,-2.22 5.63,-4.39 8.54,-6.72 0.49,-0.4 1.21,-1.22 1.71,-1.35 0.79,-0.2 2.12,0 3.23,0 l 47.66,0 c 0.27,0.12 -0.19,0.28 -0.3,0.37 -1.18,0.86 -2.6,1.69 -3.85,2.56 -9.93,6.88 -20.27,13.79 -30.27,20.63 10.98,6.83 22.11,13.79 33.14,20.63 0.7,0.43 1.47,0.77 2.07,1.35 l -43.87,0 c -1,0 -2.1,0.15 -2.87,0 -0.42,-0.08 -0.99,-0.56 -1.47,-0.86 -3.27,-2.01 -6.74,-4.1 -9.89,-6.04 -2.63,1.94 -5.32,3.96 -8.12,6.04 -0.4,0.3 -0.79,0.78 -1.16,0.86 -0.7,0.16 -1.79,0 -2.75,0 -13.53,0 -27.890002,0 -41.190002,0 -0.25,0 -0.01,-0.04 0,-0.12 7.58,-6.57 15.22,-13.09 22.760002,-19.71 -15.440002,-8.56 -30.940002,-17.07 -46.380002,-25.63 z"
     id="path4194"
     style="fill:#000000;fill-rule:evenodd"
     inkscape:connector-curvature="0" />
  <path
     class="cls-1"
     d="m 323.31193,116.0171 c 0.26,0.08 -0.04,0.32 -0.06,0.37 -0.46,0.95 -1.16,1.96 -1.71,2.93 -1.87,3.28 -3.79,6.76 -5.74,10.01 -25.61,0.1 -51.78,-0.14 -77.56,0 -2.19,0 -4.05,0.62 -5.68,1.34 -2.51,1.11 -4.42,2.62 -5.55,5.06 -0.37,0.81 -0.52,1.65 -0.67,2.81 -0.5,3.96 -0.91,8.11 -1.27,12.81 12.08,0 24.96,-0.12 37.46,-0.12 0.75,0 1.69,-0.03 2.62,-0.06 0.84,-0.03 2.16,0.19 2.62,0 0.37,-0.14 0.55,-1.08 0.74,-1.53 0.24,-0.58 0.49,-1.05 0.67,-1.52 l -32.4,0 c 0.93,-4.42 1.89,-8.82 2.87,-13.18 l 72.99,0 c 0.27,0.08 -0.04,0.32 -0.06,0.37 -0.45,0.94 -1.1,1.98 -1.65,2.93 -4.43,7.69 -8.97,15.62 -13.42,23.32 -29.21,0 -57.82,0 -87.08,0 -3.85,0 -7.5,0.07 -10.92,0 -3.5,-0.07 -6.29,-1.03 -8.35,-2.5 -2.07,-1.47 -3.81,-3.72 -3.79,-7.08 0.02,-3.34 -0.04,-6.99 0.06,-10.8 0.11,-3.97 0,-7.31 0.06,-10.86 0.04,-1.97 0.14,-3.41 0.73,-4.7 0.55,-1.2 1.45,-2.23 2.32,-3.11 1.76,-1.76 3.97,-3.14 6.59,-4.27 2.57,-1.11 5.59,-2.02 8.91,-2.2 2.44,-0.13 4.92,0 7.39,0 l 109.91,0 z"
     id="path4196"
     style="fill:#000000;fill-rule:evenodd"
     inkscape:connector-curvature="0" />
</svg>
