<?xml version="1.0" encoding="UTF-8" standalone="no"?>
<!-- Created with Inkscape (http://www.inkscape.org/) -->

<svg
   xmlns:dc="http://purl.org/dc/elements/1.1/"
   xmlns:cc="http://creativecommons.org/ns#"
   xmlns:rdf="http://www.w3.org/1999/02/22-rdf-syntax-ns#"
   xmlns:svg="http://www.w3.org/2000/svg"
   xmlns="http://www.w3.org/2000/svg"
   xmlns:sodipodi="http://sodipodi.sourceforge.net/DTD/sodipodi-0.dtd"
   xmlns:inkscape="http://www.inkscape.org/namespaces/inkscape"
   width="72.707024mm"
   height="47.030766mm"
   viewBox="0 0 257.62331 166.64444"
   id="svg2"
   version="1.1"
   inkscape:version="0.91 r13725"
   sodipodi:docname="URLogo.svg">
  <defs
     id="defs4">
    <clipPath
       id="clipPath4168"
       clipPathUnits="userSpaceOnUse">
      <path
         inkscape:connector-curvature="0"
         id="path4170"
         d="m 0,1080 1920,0 L 1920,0 0,0 0,1080 Z" />
    </clipPath>
  </defs>
  <sodipodi:namedview
     id="base"
     pagecolor="#ffffff"
     bordercolor="#666666"
     borderopacity="1.0"
     inkscape:pageopacity="0.0"
     inkscape:pageshadow="2"
     inkscape:zoom="1.979899"
     inkscape:cx="63.871018"
     inkscape:cy="52.141555"
     inkscape:document-units="px"
     inkscape:current-layer="layer1"
     showgrid="false"
     fit-margin-top="0"
     fit-margin-left="0"
     fit-margin-right="0"
     fit-margin-bottom="0"
     inkscape:window-width="1920"
     inkscape:window-height="1013"
     inkscape:window-x="-9"
     inkscape:window-y="-9"
     inkscape:window-maximized="1" />
  <metadata
     id="metadata7">
    <rdf:RDF>
      <cc:Work
         rdf:about="">
        <dc:format>image/svg+xml</dc:format>
        <dc:type
           rdf:resource="http://purl.org/dc/dcmitype/StillImage" />
        <dc:title></dc:title>
      </cc:Work>
    </rdf:RDF>
  </metadata>
  <g
     inkscape:label="Layer 1"
     inkscape:groupmode="layer"
     id="layer1"
     transform="translate(-56.902631,-435.09397)">
    <g
       transform="matrix(0.16718411,0,0,-0.16718411,25.141562,608.69563)"
       inkscape:label="URLOGOFINAL"
       id="g4144">
      <g
         transform="translate(381.7381,436.1448)"
         id="g4146">
        <path
           inkscape:connector-curvature="0"
           id="path4148"
           style="fill:#000000;fill-opacity:1;fill-rule:nonzero;stroke:none"
           d="m 0,0 0,217.128 69.045,0 0,-156.26 96.299,0 L 165.344,0 0,0 Z" />
      </g>
      <g
         transform="translate(451.2373,653.7272)"
         id="g4150">
        <path
           inkscape:connector-curvature="0"
           id="path4152"
           style="fill:#000000;fill-opacity:1;fill-rule:nonzero;stroke:none"
           d="m 0,0 -69.953,0 0,-218.036 166.252,0 0,61.777 -96.299,0 L 0,0 Z m -0.908,-0.909 0,-155.35 0,-0.909 0.908,0 95.391,0 0,-59.96 -164.436,0 0,216.219 68.137,0 z" />
      </g>
      <g
         transform="translate(398.0908,452.4975)"
         id="g4154">
        <path
           inkscape:connector-curvature="0"
           id="path4156"
           style="fill:#000000;fill-opacity:1;fill-rule:nonzero;stroke:none"
           d="m 0,0 132.639,0 0,28.163 -96.3,0 0,156.26 L 0,184.423 0,0 Z m -33.451,-33.614 0,251.65 103.404,0 0,-156.259 96.3,0 0,-95.391 -199.704,0 z" />
      </g>
      <g
         transform="translate(530.2753,452.954)"
         id="g4158">
        <path
           inkscape:connector-curvature="0"
           id="path4160"
           style="fill:#000000;fill-opacity:1;fill-rule:nonzero;stroke:none"
           d="m 0,0 -131.73,0 0,183.514 35.431,0 0,-156.259 L 0,27.255 0,0 Z m -95.391,28.163 0,156.26 -37.248,0 0,-185.331 133.548,0 0,29.071 -96.3,0 z M 0,0 l -131.73,0 0,183.514 35.431,0 0,-156.259 L 0,27.255 0,0 Z m -95.391,28.163 0,156.26 -37.248,0 0,-185.331 133.548,0 0,29.071 -96.3,0 z M 0,0 l -131.73,0 0,183.514 35.431,0 0,-156.259 L 0,27.255 0,0 Z m -95.391,28.163 0,156.26 -37.248,0 0,-185.331 133.548,0 0,29.071 -96.3,0 z M 0,0 l -131.73,0 0,183.514 35.431,0 0,-156.259 L 0,27.255 0,0 Z m -95.391,28.163 0,156.26 -37.248,0 0,-185.331 133.548,0 0,29.071 -96.3,0 z M 0,0 l -131.73,0 0,183.514 35.431,0 0,-156.259 L 0,27.255 0,0 Z m -95.391,28.163 0,156.26 -37.248,0 0,-185.331 133.548,0 0,29.071 -96.3,0 z M 0,0 l -131.73,0 0,183.514 35.431,0 0,-156.259 L 0,27.255 0,0 Z m -95.391,28.163 0,156.26 -37.248,0 0,-185.331 133.548,0 0,29.071 -96.3,0 z M 0,0 l -131.73,0 0,183.514 35.431,0 0,-156.259 L 0,27.255 0,0 Z m -95.391,184.423 -37.248,0 0,-185.331 133.548,0 0,29.071 -96.3,0 0,156.26 z m 129.005,-218.037 -198.795,0 0,250.742 102.496,0 0,-156.26 96.299,0 0,-94.482 z m -95.391,95.391 0,156.259 -104.312,0 0,-252.558 200.611,0 0,96.299 -96.299,0 z M 0,0 l -131.73,0 0,183.514 35.431,0 0,-156.259 L 0,27.255 0,0 Z m -95.391,28.163 0,156.26 -37.248,0 0,-185.331 133.548,0 0,29.071 -96.3,0 z M 0,0 l -131.73,0 0,183.514 35.431,0 0,-156.259 L 0,27.255 0,0 Z m -95.391,28.163 0,156.26 -37.248,0 0,-185.331 133.548,0 0,29.071 -96.3,0 z M 0,0 l -131.73,0 0,183.514 35.431,0 0,-156.259 L 0,27.255 0,0 Z m -95.391,28.163 0,156.26 -37.248,0 0,-185.331 133.548,0 0,29.071 -96.3,0 z M 0,0 l -131.73,0 0,183.514 35.431,0 0,-156.259 L 0,27.255 0,0 Z m -95.391,28.163 0,156.26 -37.248,0 0,-185.331 133.548,0 0,29.071 -96.3,0 z M 0,0 l -131.73,0 0,183.514 35.431,0 0,-156.259 L 0,27.255 0,0 Z m -95.391,28.163 0,156.26 -37.248,0 0,-185.331 133.548,0 0,29.071 -96.3,0 z M 0,0 l -131.73,0 0,183.514 35.431,0 0,-156.259 L 0,27.255 0,0 Z m -95.391,28.163 0,156.26 -37.248,0 0,-185.331 133.548,0 0,29.071 -96.3,0 z M 0,0 l -131.73,0 0,183.514 35.431,0 0,-156.259 L 0,27.255 0,0 Z m -95.391,28.163 0,156.26 -37.248,0 0,-185.331 133.548,0 0,29.071 -96.3,0 z M 0,0 l -131.73,0 0,183.514 35.431,0 0,-156.259 L 0,27.255 0,0 Z m -95.391,28.163 0,156.26 -37.248,0 0,-185.331 133.548,0 0,29.071 -96.3,0 z M 0,0 l -131.73,0 0,183.514 35.431,0 0,-156.259 L 0,27.255 0,0 Z m -95.391,28.163 0,156.26 -37.248,0 0,-185.331 133.548,0 0,29.071 -96.3,0 z M 0,0 l -131.73,0 0,183.514 35.431,0 0,-156.259 L 0,27.255 0,0 Z m -95.391,28.163 0,156.26 -37.248,0 0,-185.331 133.548,0 0,29.071 -96.3,0 z" />
      </g>
      <path
         inkscape:connector-curvature="0"
         id="path4162"
         style="fill:#000000;fill-opacity:1;fill-rule:nonzero;stroke:none"
         d="m 747.276,566.387 -26.128,0 0,26.119 26.128,0 0,-26.119 z" />
      <g
         id="g4164">
        <g
           clip-path="url(#clipPath4168)"
           id="g4166">
          <g
             transform="translate(817.4021,577.4165)"
             id="g4172">
            <path
               inkscape:connector-curvature="0"
               id="path4174"
               style="fill:#000000;fill-opacity:1;fill-rule:nonzero;stroke:none"
               d="m 0,0 c 0,-10.966 -3.28,-20.832 -8.222,-29.489 -0.145,-0.255 -0.3,-0.518 -0.454,-0.773 -0.146,-0.254 -0.3,-0.518 -0.454,-0.772 -5.624,-9.312 -13.146,-17.161 -20.459,-23.393 -0.019,-0.018 -0.037,-0.028 -0.055,-0.046 -10.239,-8.721 -20.059,-14.254 -23.666,-16.153 -0.154,-0.081 -0.3,-0.154 -0.427,-0.218 -0.154,-0.082 -0.3,-0.154 -0.418,-0.218 -0.236,-0.118 -0.409,-0.209 -0.509,-0.254 l -18.042,0 c 1.19,0.127 2.38,0.281 3.561,0.454 l 0.009,0 c 4.116,0.591 8.177,1.481 12.128,2.653 l 0.009,0 c 0.164,0.045 0.328,0.1 0.491,0.145 0.173,0.055 0.336,0.1 0.491,0.155 0.681,0.209 1.353,0.418 2.016,0.645 0.409,0.136 0.809,0.272 1.209,0.408 1.199,0.427 2.398,0.873 3.579,1.345 0.782,0.318 1.563,0.636 2.335,0.981 l 0.009,0 c 0.772,0.337 1.535,0.682 2.299,1.045 3.061,1.444 6.032,3.071 8.903,4.86 0.363,0.237 0.736,0.464 1.099,0.709 0.136,0.091 0.273,0.182 0.409,0.264 0,0.009 0.009,0.009 0.009,0.009 0.009,0.009 0.009,0.018 0.018,0.018 2.135,1.653 4.325,3.461 6.514,5.414 6.296,5.624 13.209,13.046 18.488,22.022 0.154,0.263 0.308,0.518 0.454,0.781 0.154,0.273 0.309,0.536 0.454,0.809 4.606,8.331 7.768,17.924 7.768,28.599 0,6.605 -0.981,13.309 -2.917,19.905 -1.262,4.324 -2.889,8.476 -4.851,12.437 -0.145,0.3 -0.3,0.6 -0.454,0.9 -0.146,0.299 -0.3,0.581 -0.454,0.872 -5.351,10.138 -12.964,18.96 -22.485,25.955 -13.646,10.03 -29.853,15.335 -46.851,15.335 l -270.438,0 0,-6.323 53.973,-53.637 43.38,0 0,-156.259 67.083,0 0,157.168 20.641,0 0,-157.168 60.905,0 0,-0.454 -61.359,0 0,157.167 -19.733,0 0,-157.167 -67.991,0 0,156.259 -43.107,0 -53.792,53.455 -0.454,0.455 -0.454,0.444 -6.551,6.515 277.897,0 c 29.271,0 55.872,-16.199 69.336,-40.873 0.154,-0.282 0.308,-0.564 0.454,-0.845 0.154,-0.282 0.309,-0.573 0.454,-0.863 2.153,-4.197 3.934,-8.622 5.288,-13.246 C -0.981,13.391 0,6.65 0,0" />
          </g>
          <g
             transform="translate(817.2475,586.5195)"
             id="g4176">
            <path
               inkscape:connector-curvature="0"
               id="path4178"
               style="fill:#000000;fill-opacity:1;fill-rule:nonzero;stroke:none"
               d="M 0,0 C -0.1,0.745 -0.209,1.472 -0.327,2.208 -0.563,3.67 -0.854,5.115 -1.172,6.541 -1.335,7.25 -1.508,7.958 -1.69,8.667 c -0.2,0.799 -0.418,1.599 -0.654,2.389 -1.453,4.97 -3.38,9.694 -5.723,14.145 -0.146,0.282 -0.3,0.573 -0.454,0.854 -0.146,0.273 -0.3,0.554 -0.455,0.827 -0.427,0.763 -0.863,1.508 -1.317,2.253 -0.572,0.936 -1.154,1.862 -1.754,2.78 -0.599,0.908 -1.226,1.808 -1.871,2.689 -0.009,0.009 -0.009,0.009 -0.009,0.018 -0.7,0.963 -1.417,1.908 -2.18,2.844 -1.69,2.126 -3.498,4.152 -5.397,6.078 -0.727,0.736 -1.472,1.462 -2.235,2.18 -1.135,1.063 -2.307,2.089 -3.497,3.089 l -0.009,0 c -0.8,0.672 -1.609,1.317 -2.435,1.944 -2.471,1.89 -5.06,3.643 -7.759,5.242 -0.89,0.527 -1.789,1.036 -2.707,1.544 l -0.009,0 c -0.909,0.491 -1.835,0.963 -2.771,1.436 l -0.009,0 c -2.689,1.326 -5.469,2.498 -8.313,3.525 -1.417,0.508 -2.852,0.981 -4.306,1.408 l -0.009,0 c -0.454,0.136 -0.908,0.263 -1.363,0.391 -0.454,0.127 -0.917,0.254 -1.381,0.372 -1.38,0.354 -2.761,0.663 -4.17,0.954 -2.343,0.472 -4.715,0.845 -7.113,1.099 -0.954,0.1 -1.917,0.191 -2.889,0.264 -0.481,0.036 -0.972,0.063 -1.453,0.09 -0.973,0.064 -1.936,0.1 -2.908,0.11 l -0.018,0 c -0.481,0.018 -0.972,0.018 -1.453,0.018 l -278.996,0 0,-0.009 0.009,0 7.64,-7.595 0,-0.01 0.909,-0.89 0,-0.009 53.6,-53.264 42.844,0 0,-156.26 68.9,0 0,157.168 18.824,0 0,-157.168 61.813,0 0,0.909 -60.905,0 0,157.168 -20.64,0 0,-157.168 -67.083,0 0,156.259 -43.38,0 -53.973,53.637 -0.909,0.909 -5.451,5.414 276.798,0 c 16.997,0 33.205,-5.305 46.85,-15.335 9.521,-6.995 17.134,-15.817 22.485,-25.955 0.155,-0.291 0.309,-0.573 0.455,-0.873 0.154,-0.299 0.308,-0.599 0.454,-0.899 1.962,-3.961 3.588,-8.113 4.851,-12.437 1.935,-6.596 2.916,-13.3 2.916,-19.905 0,-10.675 -3.161,-20.268 -7.767,-28.599 -0.146,-0.273 -0.3,-0.536 -0.454,-0.809 -0.146,-0.263 -0.3,-0.518 -0.455,-0.781 -5.278,-8.976 -12.192,-16.398 -18.488,-22.022 -2.189,-1.953 -4.378,-3.761 -6.513,-5.414 -0.009,0 -0.009,-0.009 -0.018,-0.018 0,0 -0.01,0 -0.01,-0.009 -8.685,-6.751 -16.488,-11.075 -19.487,-12.638 -0.154,-0.081 -0.29,-0.154 -0.418,-0.218 -0.163,-0.081 -0.308,-0.154 -0.426,-0.218 -0.109,-0.054 -0.2,-0.1 -0.273,-0.136 l -14.372,0 -0.009,0 c -1.181,-0.173 -2.372,-0.327 -3.562,-0.454 -0.009,0.009 -0.009,0.009 -0.018,0 -2.135,-0.218 -4.279,-0.364 -6.441,-0.427 l 0.018,-0.027 24.593,0 c 0,0 0.254,0.118 0.736,0.363 0.118,0.064 0.263,0.136 0.418,0.227 0.136,0.064 0.272,0.136 0.427,0.218 5.505,2.889 24.265,13.518 38.002,30.689 0.127,0.163 0.254,0.327 0.39,0.49 0.382,0.491 0.772,0.991 1.154,1.49 0.036,0.055 0.073,0.109 0.118,0.164 0.018,0.018 0.037,0.045 0.055,0.063 0.018,0.028 0.027,0.046 0.045,0.073 l 0.009,0 c 0.118,0.146 0.227,0.3 0.336,0.454 0.109,0.155 0.227,0.318 0.345,0.473 0.228,0.309 0.455,0.627 0.682,0.945 0.027,0.036 0.054,0.081 0.082,0.118 0.018,0.036 0.045,0.072 0.072,0.109 l 0.009,0 c 0.182,0.263 0.364,0.527 0.536,0.79 0.182,0.263 0.364,0.527 0.546,0.8 0.072,0.108 0.136,0.208 0.208,0.318 l 0.01,0 c 0.136,0.209 0.281,0.426 0.408,0.636 0.282,0.436 0.555,0.881 0.836,1.326 0.146,0.245 0.3,0.481 0.455,0.736 l 0,0.018 c 0.017,0.018 0.027,0.045 0.045,0.063 0.027,0.055 0.063,0.119 0.1,0.173 l 0.009,0 c 0.1,0.173 0.2,0.345 0.3,0.518 l 0,0.009 c 0.09,0.163 0.19,0.318 0.281,0.481 0.146,0.255 0.291,0.509 0.436,0.764 0.046,0.081 0.091,0.172 0.137,0.254 l 0.009,0 c 0.054,0.1 0.109,0.209 0.163,0.309 0.255,0.481 0.518,0.954 0.763,1.444 0.191,0.373 0.382,0.745 0.573,1.127 0.036,0.082 0.082,0.163 0.118,0.245 0.109,0.209 0.209,0.418 0.309,0.627 0.072,0.145 0.136,0.291 0.199,0.436 l 0.01,0 c 0.063,0.146 0.136,0.291 0.199,0.445 0.091,0.209 0.191,0.418 0.282,0.627 l 0.009,0 c 0.037,0.082 0.073,0.164 0.109,0.254 0.118,0.273 0.237,0.546 0.355,0.827 l 0.009,0 c 0.009,0.027 0.018,0.055 0.027,0.073 0.118,0.3 0.245,0.6 0.373,0.899 0.008,0.046 0.027,0.082 0.045,0.128 l 0.009,0 c 0.027,0.081 0.063,0.163 0.091,0.245 0.127,0.327 0.254,0.654 0.381,0.99 0.046,0.127 0.1,0.254 0.146,0.382 0.054,0.127 0.1,0.254 0.145,0.381 0.027,0.073 0.055,0.155 0.073,0.227 l 0.009,0 c 0.045,0.136 0.091,0.264 0.136,0.4 0.091,0.245 0.173,0.481 0.245,0.727 l 0.009,0 c 0.237,0.69 0.455,1.381 0.664,2.089 0.091,0.318 0.181,0.636 0.272,0.954 0.073,0.254 0.136,0.509 0.209,0.763 0.046,0.173 0.091,0.346 0.127,0.518 0.064,0.209 0.109,0.427 0.164,0.645 0.072,0.282 0.136,0.554 0.191,0.836 0.009,0.045 0.018,0.091 0.036,0.145 0.073,0.346 0.145,0.682 0.218,1.027 0.064,0.345 0.136,0.69 0.2,1.036 0.127,0.636 0.227,1.262 0.327,1.907 0.054,0.337 0.1,0.673 0.145,1.018 0.027,0.191 0.046,0.391 0.064,0.581 0.073,0.6 0.136,1.2 0.191,1.808 0.018,0.164 0.036,0.327 0.045,0.491 0.009,0.1 0.018,0.191 0.027,0.281 0,0.091 0.009,0.182 0.009,0.273 0.01,0.082 0.019,0.173 0.019,0.263 0,0.091 0.009,0.182 0.018,0.273 0,0.173 0.018,0.345 0.027,0.527 0,0.073 0.009,0.136 0.009,0.209 0.009,0.073 0.009,0.154 0.018,0.236 0.009,0.345 0.028,0.691 0.028,1.036 0.008,0.427 0.018,0.845 0.018,1.272 l 0,0.018 C 0.609,-6.005 0.4,-2.962 0,0 m -8.976,-39.292 c -5.278,-8.976 -12.192,-16.398 -18.488,-22.022 -2.189,-1.953 -4.378,-3.761 -6.513,-5.414 1.526,0.999 3.025,2.053 4.488,3.152 0.018,0.018 0.036,0.027 0.054,0.046 2.762,2.089 5.396,4.351 7.904,6.777 2.371,2.308 4.615,4.769 6.714,7.377 0.127,0.163 0.254,0.327 0.39,0.49 0.382,0.491 0.772,0.991 1.154,1.49 0.036,0.055 0.073,0.109 0.118,0.164 0.018,0.018 0.037,0.045 0.055,0.063 0.018,0.028 0.027,0.046 0.045,0.073 0.118,0.154 0.227,0.3 0.345,0.454 0.109,0.155 0.227,0.318 0.345,0.473 0.228,0.309 0.455,0.627 0.682,0.945 0.027,0.036 0.054,0.081 0.082,0.118 0.018,0.036 0.045,0.072 0.072,0.109 0.191,0.263 0.373,0.527 0.545,0.79 0.182,0.263 0.364,0.527 0.546,0.8 0.072,0.108 0.136,0.208 0.208,0.318 0.137,0.209 0.282,0.426 0.418,0.636 0.282,0.436 0.555,0.881 0.836,1.326 l 0,0.99 c 0.155,0.254 0.309,0.518 0.455,0.772 l 0,0.854 c -0.146,-0.263 -0.3,-0.518 -0.455,-0.781" />
          </g>
          <g
             transform="translate(1122.8079,436.1448)"
             id="g4180">
            <path
               inkscape:connector-curvature="0"
               id="path4182"
               style="fill:#000000;fill-opacity:1;fill-rule:nonzero;stroke:none"
               d="m 0,0 0,217.128 85.815,0 c 34.836,0 65.897,-22.953 75.532,-55.818 1.947,-6.652 2.934,-13.395 2.934,-20.041 0,-43.759 -52.126,-70.066 -54.66,-71.316 l -41.784,0 L 67.837,0 0,0 Z" />
          </g>
          <g
             transform="translate(1208.6233,653.7272)"
             id="g4184">
            <path
               inkscape:connector-curvature="0"
               id="path4186"
               style="fill:#000000;fill-opacity:1;fill-rule:nonzero;stroke:none"
               d="m 0,0 -86.27,0 0,-218.036 68.745,0 0,69.953 41.436,0 c 0,0 55.009,26.346 55.009,71.77 0,7.096 -1.099,13.837 -2.952,20.169 C 66.147,-22.648 34.904,0 0,0 m 0,-0.909 c 17,0 33.202,-5.302 46.852,-15.334 13.734,-10.094 23.501,-23.98 28.244,-40.156 1.935,-6.611 2.916,-13.311 2.916,-19.914 0,-10.19 -2.846,-20.25 -8.459,-29.898 -4.509,-7.751 -10.803,-15.258 -18.708,-22.312 -12.654,-11.295 -25.476,-17.824 -27.144,-18.652 l -41.226,0 -0.908,0 0,-0.908 0,-69.045 -66.928,0 0,216.219 85.361,0 z" />
          </g>
          <g
             transform="translate(1139.1605,452.4975)"
             id="g4188">
            <path
               inkscape:connector-curvature="0"
               id="path4190"
               style="fill:#000000;fill-opacity:1;fill-rule:nonzero;stroke:none"
               d="m 0,0 35.131,0 0,69.953 54.064,0 0.104,0.059 c 9.918,5.589 42.277,26.066 42.277,54.905 0,5.091 -0.766,10.288 -2.276,15.448 -7.606,25.94 -32.211,44.058 -59.837,44.058 L 0,184.423 0,0 Z m -33.614,-33.614 0,251.65 103.077,0 c 20.801,0 40.63,-6.492 57.343,-18.775 16.89,-12.414 28.908,-29.512 34.752,-49.446 2.41,-8.233 3.632,-16.61 3.632,-24.898 0,-55.388 -61.92,-85.667 -64.556,-86.928 l -3.442,-1.65 -28.447,0 0,-69.953 -102.359,0 z" />
          </g>
          <g
             transform="translate(1139.6147,452.9521)"
             id="g4192">
            <path
               inkscape:connector-curvature="0"
               id="path4194"
               style="fill:#000000;fill-opacity:1;fill-rule:nonzero;stroke:none"
               d="m 0,0 0,183.514 69.009,0 c 27.424,0 51.852,-17.987 59.401,-43.731 1.498,-5.119 2.257,-10.273 2.257,-15.321 0,-28.507 -31.774,-48.721 -42.045,-54.509 l -54.399,0 L 34.223,0 0,0 Z m 69.009,218.036 -103.531,0 0,-252.558 103.267,0 0,69.953 28.096,0 3.535,1.694 c 2.647,1.266 64.814,31.681 64.814,87.337 0,8.331 -1.227,16.748 -3.65,25.026 -5.873,20.031 -17.949,37.212 -34.92,49.685 -16.791,12.34 -36.713,18.863 -57.611,18.863 M -0.908,-0.909 l 0.908,0 34.223,0 0.908,0 0,0.909 0,69.045 53.491,0 0.238,0 0.208,0.117 c 9.972,5.619 42.508,26.215 42.508,55.3 0,5.135 -0.772,10.375 -2.295,15.576 -7.662,26.133 -32.447,44.385 -60.272,44.385 l -69.009,0 -0.908,0 0,-0.909 0,-183.514 0,-0.909 z m 69.917,218.037 c 20.703,0 40.439,-6.462 57.073,-18.687 16.81,-12.355 28.77,-29.371 34.586,-49.208 2.398,-8.192 3.613,-16.526 3.613,-24.771 0,-55.104 -61.672,-85.261 -64.297,-86.518 l -3.35,-1.605 -27.889,0 -0.908,0 0,-0.908 0,-69.045 -101.451,0 0,250.742 102.623,0 z" />
          </g>
          <g
             transform="translate(809.5344,436.147)"
             id="g4196">
            <path
               inkscape:connector-curvature="0"
               id="path4198"
               style="fill:#000000;fill-opacity:1;fill-rule:nonzero;stroke:none"
               d="m 0,0 -1.899,0 -0.454,0.454 -53.283,53.374 -3.07,3.079 -0.455,0.455 0,1.953 5.17,-5.178 L -1.263,1.263 0,0 Z" />
          </g>
          <g
             transform="translate(809.1802,437.1374)"
             id="g4200">
            <path
               inkscape:connector-curvature="0"
               id="path4202"
               style="fill:#000000;fill-opacity:1;fill-rule:nonzero;stroke:none"
               d="m 0,0 -0.454,0.463 -0.455,0.454 -52.192,52.338 -6.16,6.169 0,-2.598 0.909,-0.909 0,1.308 4.17,-4.188 53.273,-53.41 0.164,-0.163 -1.254,0 0.909,-0.909 2.534,0 L 0,0 Z" />
          </g>
          <g
             transform="translate(850.6707,419.3401)"
             id="g4204">
            <path
               inkscape:connector-curvature="0"
               id="path4206"
               style="fill:#000000;fill-opacity:1;fill-rule:nonzero;stroke:none"
               d="m 0,0 -16.298,16.344 -0.918,0.917 -7.013,7.032 -0.918,0.917 -16.343,16.39 -0.909,0.908 -33.868,33.959 -10.403,10.43 -0.336,0.336 -0.327,0.336 -2.444,2.444 c -0.163,-0.046 -0.327,-0.1 -0.49,-0.146 l -0.009,0 c -3.952,-1.172 -8.013,-2.062 -12.128,-2.652 l -0.01,0 c -1.181,-0.173 -2.371,-0.328 -3.561,-0.455 -0.009,0.009 -0.009,0.009 -0.018,0 -2.135,-0.218 -4.279,-0.363 -6.441,-0.427 l 0.018,-0.027 11.665,-11.683 0.908,-0.909 3.071,-3.079 53.283,-53.374 0.917,-0.917 -74.986,0 0,-16.798 118.012,0 L 0,0 Z" />
          </g>
          <g
             transform="translate(851.3157,419.3401)"
             id="g4208">
            <path
               inkscape:connector-curvature="0"
               id="path4210"
               style="fill:#000000;fill-opacity:1;fill-rule:nonzero;stroke:none"
               d="m 0,0 -16.298,16.344 -0.918,0.917 -7.658,7.677 -0.454,0.454 -0.455,0.463 -0.009,0.01 -16.343,16.38 -0.909,0.908 -33.405,33.496 -10.438,10.466 -0.673,0.672 -2.371,2.38 c -0.154,-0.054 -0.318,-0.1 -0.491,-0.154 -0.163,-0.046 -0.326,-0.1 -0.49,-0.146 l 2.507,-2.516 0.337,-0.336 0.336,-0.346 10.365,-10.384 34.323,-34.413 0.909,-0.908 16.343,-16.389 0.009,-0.01 0.909,-0.908 6.377,-6.396 0.918,-0.917 L -1.281,0 l -116.468,0 0,16.344 -0.908,0 0,-17.252 119.566,0 L 0,0 Z m -25.792,25.21 -16.343,16.39 -0.909,0.908 -33.868,33.959 -10.403,10.43 -0.336,0.336 -0.327,0.336 c -0.163,-0.082 -0.309,-0.155 -0.427,-0.218 l 0.337,-0.336 0.336,-0.346 10.365,-10.384 34.323,-34.413 0.909,-0.908 16.343,-16.389 0.009,-0.01 0.909,-0.908 0,0.636 -0.918,0.917 z" />
          </g>
          <g
             transform="translate(1218.453,436.1448)"
             id="g4212">
            <path
               inkscape:connector-curvature="0"
               id="path4214"
               style="fill:#000000;fill-opacity:1;fill-rule:nonzero;stroke:none"
               d="M 0,0 0,59.316 59.161,0 0,0 Z" />
          </g>
          <g
             transform="translate(1217.9989,496.5593)"
             id="g4216">
            <path
               inkscape:connector-curvature="0"
               id="path4218"
               style="fill:#000000;fill-opacity:1;fill-rule:nonzero;stroke:none"
               d="m 0,0 0,-60.869 60.709,0 L 0,0 Z m 0.908,-2.197 57.612,-57.763 -57.612,0 0,57.763 z" />
          </g>
          <g
             transform="translate(1234.8062,452.4975)"
             id="g4220">
            <path
               inkscape:connector-curvature="0"
               id="path4222"
               style="fill:#000000;fill-opacity:1;fill-rule:nonzero;stroke:none"
               d="M 0,0 3.402,0 0,3.41 0,0 Z m -33.614,-33.614 0,118.327 118.017,-118.327 -118.017,0 z" />
          </g>
          <g
             transform="translate(1235.2604,452.9521)"
             id="g4224">
            <path
               inkscape:connector-curvature="0"
               id="path4226"
               style="fill:#000000;fill-opacity:1;fill-rule:nonzero;stroke:none"
               d="M 0,0 0,1.858 1.853,0 0,0 Z m -34.522,85.357 0,-119.879 119.566,0 -119.566,119.879 z m 33.613,-86.266 0.909,0 1.853,0 2.19,0 -1.547,1.551 -1.853,1.857 -1.552,1.556 0,-2.197 0,-1.858 0,-0.909 z m -32.705,84.068 116.468,-116.773 -116.468,0 0,116.773 z" />
          </g>
          <g
             transform="translate(922.2868,436.1448)"
             id="g4228">
            <path
               inkscape:connector-curvature="0"
               id="path4230"
               style="fill:#000000;fill-opacity:1;fill-rule:nonzero;stroke:none"
               d="m 0,0 0,69.045 -27.927,0 0,-69.045 -68.372,0 0,217.128 113.46,0 c 13.701,0 32.357,-3.993 43.43,-23.018 6.642,-11.412 7.412,-22.987 7.419,-23.103 L 68.009,0 0,0 Z" />
          </g>
          <g
             transform="translate(939.4478,653.7272)"
             id="g4232">
            <path
               inkscape:connector-curvature="0"
               id="path4234"
               style="fill:#000000;fill-opacity:1;fill-rule:nonzero;stroke:none"
               d="m 0,0 -113.914,0 0,-218.036 69.281,0 0,69.044 27.018,0 0,-69.044 68.918,0 0,171.488 C 51.303,-46.548 48.503,0 0,0 m 0,-0.909 c 10.876,0 20.285,-2.394 27.967,-7.116 6.135,-3.772 11.2,-9.036 15.054,-15.647 6.45,-11.067 7.33,-22.302 7.373,-22.906 l 0,-170.55 -67.101,0 0,68.136 0,0.909 -0.908,0 -27.018,0 -0.909,0 0,-0.909 0,-68.136 -67.464,0 0,216.219 113.006,0 z" />
          </g>
          <g
             transform="translate(973.943,452.4998)"
             id="g4236">
            <path
               inkscape:connector-curvature="0"
               id="path4238"
               style="fill:#000000;fill-opacity:1;fill-rule:nonzero;stroke:none"
               d="m 0,0 -35.304,0 0,69.045 -60.632,0 0,-69.045 -35.667,0 0,184.422 97.108,0 c 13.518,0 22.939,-4.606 28.808,-14.081 4.315,-6.959 5.442,-14.318 5.687,-16.453 L 0,0 Z m 33.587,155.687 c -0.1,1.599 -1.191,16.044 -9.712,30.716 -11.856,20.395 -32.587,31.633 -58.37,31.633 l -130.722,0 0,-59.878 c 0.154,-0.3 0.309,-0.599 0.454,-0.899 1.962,-3.961 3.589,-8.113 4.851,-12.437 1.936,-6.596 2.917,-13.301 2.917,-19.905 0,-10.675 -3.162,-20.269 -7.768,-28.599 -0.145,-0.273 -0.3,-0.536 -0.454,-0.809 l 0,-129.123 198.831,0 0,188.284 -0.027,1.017 z" />
          </g>
          <g
             transform="translate(973.4888,452.954)"
             id="g4240">
            <path
               inkscape:connector-curvature="0"
               id="path4242"
               style="fill:#000000;fill-opacity:1;fill-rule:nonzero;stroke:none"
               d="m 0,0 -34.395,0 0,69.045 -61.541,0 0,-69.045 -34.759,0 0,183.514 96.654,0 c 13.346,0 22.639,-4.533 28.418,-13.863 4.324,-6.978 5.414,-14.436 5.623,-16.217 L 0,0 Z m 0.899,153.534 c -0.245,2.117 -1.381,9.557 -5.75,16.598 -5.951,9.612 -15.508,14.291 -29.19,14.291 l -97.562,0 0,-185.331 36.576,0 0,69.044 59.723,0 0,-69.044 36.212,0 0,154.387 -0.009,0.055 z M 0,0 l -34.395,0 0,69.045 -61.541,0 0,-69.045 -34.759,0 0,183.514 96.654,0 c 13.346,0 22.639,-4.533 28.418,-13.863 4.324,-6.978 5.414,-14.436 5.623,-16.217 L 0,0 Z m 0.899,153.534 c -0.245,2.117 -1.381,9.557 -5.75,16.598 -5.951,9.612 -15.508,14.291 -29.19,14.291 l -97.562,0 0,-185.331 36.576,0 0,69.044 59.723,0 0,-69.044 36.212,0 0,154.387 -0.009,0.055 z m -165.662,-58.479 0,-0.854 c -0.145,-0.255 -0.3,-0.518 -0.454,-0.772 l 0,-108.328 0.454,-0.455 0,-0.645 0.454,-0.454 0,112.316 c -0.145,-0.272 -0.299,-0.536 -0.454,-0.808 M 0,0 l -34.395,0 0,69.045 -61.541,0 0,-69.045 -34.759,0 0,183.514 96.654,0 c 13.346,0 22.639,-4.533 28.418,-13.863 4.324,-6.978 5.414,-14.436 5.623,-16.217 L 0,0 Z m 0.899,153.534 c -0.245,2.117 -1.381,9.557 -5.75,16.598 -5.951,9.612 -15.508,14.291 -29.19,14.291 l -97.562,0 0,-185.331 36.576,0 0,69.044 59.723,0 0,-69.044 36.212,0 0,154.387 -0.009,0.055 z M 0,0 l -34.395,0 0,69.045 -61.541,0 0,-69.045 -34.759,0 0,183.514 96.654,0 c 13.346,0 22.639,-4.533 28.418,-13.863 4.324,-6.978 5.414,-14.436 5.623,-16.217 L 0,0 Z m 0.899,153.534 c -0.245,2.117 -1.381,9.557 -5.75,16.598 -5.951,9.612 -15.508,14.291 -29.19,14.291 l -97.562,0 0,-185.331 36.576,0 0,69.044 59.723,0 0,-69.044 36.212,0 0,154.387 -0.009,0.055 z M -95.936,0 l -34.759,0 0,183.514 96.654,0 c 13.346,0 22.639,-4.533 28.418,-13.863 4.324,-6.978 5.414,-14.436 5.623,-16.217 L 0,0 l -34.395,0 0,69.045 -61.541,0 0,-69.045 z m 96.844,-0.908 0,154.387 -0.009,0.055 c -0.245,2.117 -1.381,9.557 -5.75,16.598 -5.951,9.612 -15.508,14.291 -29.19,14.291 l -97.562,0 0,-185.331 36.576,0 0,69.044 59.723,0 0,-69.044 36.212,0 z M 34.495,155.26 c -0.1,1.608 -1.199,16.153 -9.775,30.916 -11.938,20.541 -32.805,31.86 -58.761,31.86 l -131.176,0 0,-59.46 c 0.154,-0.291 0.309,-0.572 0.454,-0.872 0.155,-0.3 0.309,-0.6 0.454,-0.9 l 0,60.324 130.268,0 c 25.619,0 46.206,-11.156 57.98,-31.416 8.467,-14.572 9.548,-28.916 9.648,-30.479 l 0.027,-1.009 0,-187.838 -197.923,0 0,129.477 c -0.145,-0.272 -0.299,-0.536 -0.454,-0.808 -0.145,-0.264 -0.3,-0.518 -0.454,-0.781 l 0,-128.796 199.739,0 0,188.746 -0.027,1.036 z M 0,0 l -34.395,0 0,69.045 -61.541,0 0,-69.045 -34.759,0 0,183.514 96.654,0 c 13.346,0 22.639,-4.533 28.418,-13.863 4.324,-6.978 5.414,-14.436 5.623,-16.217 L 0,0 Z m 0.899,153.534 c -0.245,2.117 -1.381,9.557 -5.75,16.598 -5.951,9.612 -15.508,14.291 -29.19,14.291 l -97.562,0 0,-185.331 36.576,0 0,69.044 59.723,0 0,-69.044 36.212,0 0,154.387 -0.009,0.055 z M 0,0 l -34.395,0 0,69.045 -61.541,0 0,-69.045 -34.759,0 0,183.514 96.654,0 c 13.346,0 22.639,-4.533 28.418,-13.863 4.324,-6.978 5.414,-14.436 5.623,-16.217 L 0,0 Z m 0.899,153.534 c -0.245,2.117 -1.381,9.557 -5.75,16.598 -5.951,9.612 -15.508,14.291 -29.19,14.291 l -97.562,0 0,-185.331 36.576,0 0,69.044 59.723,0 0,-69.044 36.212,0 0,154.387 -0.009,0.055 z m -165.662,-58.479 0,-0.854 c -0.145,-0.255 -0.3,-0.518 -0.454,-0.772 l 0,-108.328 0.454,-0.455 0,-0.645 0.454,-0.454 0,112.316 c -0.145,-0.272 -0.299,-0.536 -0.454,-0.808 M 0,0 l -34.395,0 0,69.045 -61.541,0 0,-69.045 -34.759,0 0,183.514 96.654,0 c 13.346,0 22.639,-4.533 28.418,-13.863 4.324,-6.978 5.414,-14.436 5.623,-16.217 L 0,0 Z m 0.899,153.534 c -0.245,2.117 -1.381,9.557 -5.75,16.598 -5.951,9.612 -15.508,14.291 -29.19,14.291 l -97.562,0 0,-185.331 36.576,0 0,69.044 59.723,0 0,-69.044 36.212,0 0,154.387 -0.009,0.055 z M 0,0 l -34.395,0 0,69.045 -61.541,0 0,-69.045 -34.759,0 0,183.514 96.654,0 c 13.346,0 22.639,-4.533 28.418,-13.863 4.324,-6.978 5.414,-14.436 5.623,-16.217 L 0,0 Z m 0.899,153.534 c -0.245,2.117 -1.381,9.557 -5.75,16.598 -5.951,9.612 -15.508,14.291 -29.19,14.291 l -97.562,0 0,-185.331 36.576,0 0,69.044 59.723,0 0,-69.044 36.212,0 0,154.387 -0.009,0.055 z m -165.662,-58.479 0,-0.854 c -0.145,-0.255 -0.3,-0.518 -0.454,-0.772 l 0,-108.328 0.454,-0.455 0,-0.645 0.454,-0.454 0,112.316 c -0.145,-0.272 -0.299,-0.536 -0.454,-0.808 M 0,0 l -34.395,0 0,69.045 -61.541,0 0,-69.045 -34.759,0 0,183.514 96.654,0 c 13.346,0 22.639,-4.533 28.418,-13.863 4.324,-6.978 5.414,-14.436 5.623,-16.217 L 0,0 Z m 0.899,153.534 c -0.245,2.117 -1.381,9.557 -5.75,16.598 -5.951,9.612 -15.508,14.291 -29.19,14.291 l -97.562,0 0,-185.331 36.576,0 0,69.044 59.723,0 0,-69.044 36.212,0 0,154.387 -0.009,0.055 z M 0,0 l -34.395,0 0,69.045 -61.541,0 0,-69.045 -34.759,0 0,183.514 96.654,0 c 13.346,0 22.639,-4.533 28.418,-13.863 4.324,-6.978 5.414,-14.436 5.623,-16.217 L 0,0 Z m 0.899,153.534 c -0.245,2.117 -1.381,9.557 -5.75,16.598 -5.951,9.612 -15.508,14.291 -29.19,14.291 l -97.562,0 0,-185.331 36.576,0 0,69.044 59.723,0 0,-69.044 36.212,0 0,154.387 -0.009,0.055 z M 0,0 l -34.395,0 0,69.045 -61.541,0 0,-69.045 -34.759,0 0,183.514 96.654,0 c 13.346,0 22.639,-4.533 28.418,-13.863 4.324,-6.978 5.414,-14.436 5.623,-16.217 L 0,0 Z m 0.899,153.534 c -0.245,2.117 -1.381,9.557 -5.75,16.598 -5.951,9.612 -15.508,14.291 -29.19,14.291 l -97.562,0 0,-185.331 36.576,0 0,69.044 59.723,0 0,-69.044 36.212,0 0,154.387 -0.009,0.055 z M 0,0 l -34.395,0 0,69.045 -61.541,0 0,-69.045 -34.759,0 0,183.514 96.654,0 c 13.346,0 22.639,-4.533 28.418,-13.863 4.324,-6.978 5.414,-14.436 5.623,-16.217 L 0,0 Z m 0.899,153.534 c -0.245,2.117 -1.381,9.557 -5.75,16.598 -5.951,9.612 -15.508,14.291 -29.19,14.291 l -97.562,0 0,-185.331 36.576,0 0,69.044 59.723,0 0,-69.044 36.212,0 0,154.387 -0.009,0.055 z m -165.662,-58.479 0,-0.854 c -0.145,-0.255 -0.3,-0.518 -0.454,-0.772 l 0,-108.328 0.454,-0.455 0,-0.645 0.454,-0.454 0,112.316 c -0.145,-0.272 -0.299,-0.536 -0.454,-0.808" />
          </g>
          <path
             inkscape:connector-curvature="0"
             id="path4244"
             style="fill:#000000;fill-opacity:1;fill-rule:nonzero;stroke:none"
             d="m 1295.942,653.273 68.863,0 0,-217.128 -68.863,0 0,217.128 z" />
          <path
             inkscape:connector-curvature="0"
             id="path4246"
             style="fill:#000000;fill-opacity:1;fill-rule:nonzero;stroke:none"
             d="m 1365.259,653.727 -69.772,0 0,-218.036 69.772,0 0,218.036 z m -0.908,-217.128 -67.955,0 0,216.219 67.955,0 0,-216.219 z" />
          <path
             inkscape:connector-curvature="0"
             id="path4248"
             style="fill:#000000;fill-opacity:1;fill-rule:nonzero;stroke:none"
             d="m 1312.294,452.498 36.158,0 0,184.423 -36.158,0 0,-184.423 z m -33.613,218.036 90.731,0 0,-251.65 -90.731,0 0,251.65 z" />
          <path
             inkscape:connector-curvature="0"
             id="path4250"
             style="fill:#000000;fill-opacity:1;fill-rule:nonzero;stroke:none"
             d="m 1312.749,636.466 35.249,0 0,-183.514 -35.249,0 0,183.514 z m 57.117,34.523 -91.64,0 0,-252.559 91.64,0 0,252.559 z m -58.026,-218.945 0.909,0 35.249,0 0.908,0 0,0.908 0,183.514 0,0.909 -0.908,0 -35.249,0 -0.909,0 0,-0.909 0,-183.514 0,-0.908 z m 57.118,-32.706 -89.823,0 0,250.742 89.823,0 0,-250.742 z" />
          <g
             transform="translate(1644.0201,436.599)"
             id="g4252">
            <path
               inkscape:connector-curvature="0"
               id="path4254"
               style="fill:#000000;fill-opacity:1;fill-rule:nonzero;stroke:none"
               d="M 0,0 -14.023,0 C -33.369,0 -60.508,3.762 -79.932,21.683 -91.068,31.958 -94.61,42.331 -94.9,43.223 l 0,173.451 164.107,0 0,-60.415 -95.494,0 0,-96.299 27.254,0 0,86.823 68.24,0 0,-215.989 L 0,0 Z" />
          </g>
          <g
             transform="translate(1713.6816,653.7272)"
             id="g4256">
            <path
               inkscape:connector-curvature="0"
               id="path4258"
               style="fill:#000000;fill-opacity:1;fill-rule:nonzero;stroke:none"
               d="m 0,0 -165.016,0 0,-173.975 c 0,0 13.195,-43.607 81.331,-43.607 l 13.836,0 L 0,-287.431 0,-69.89 l -69.149,0 0,-86.824 -26.346,0 0,95.391 95.495,0 L 0,0 Z m -0.908,-0.909 0,-59.505 -94.587,0 -0.908,0 0,-0.909 0,-95.391 0,-0.908 0.908,0 26.346,0 0.909,0 0,0.908 0,85.915 67.332,0 0,-214.439 -68.299,68.298 -0.266,0.266 -0.376,0 -13.836,0 c -15.398,0 -29.211,2.263 -41.055,6.726 -9.455,3.563 -17.685,8.529 -24.462,14.76 -10.882,10.006 -14.5,20.142 -14.905,21.356 l 0,172.923 163.199,0 z" />
          </g>
          <g
             transform="translate(1460.7306,482.4669)"
             id="g4260">
            <path
               inkscape:connector-curvature="0"
               id="path4262"
               style="fill:#000000;fill-opacity:1;fill-rule:nonzero;stroke:none"
               d="m 0,0 0,-63.583 -103.044,0 0,251.65 23.756,0 70.983,-70.792 0,70.792 104.363,0 0,-284.125 L 0,0 Z" />
          </g>
          <g
             transform="translate(1557.2429,670.9886)"
             id="g4264">
            <path
               inkscape:connector-curvature="0"
               id="path4266"
               style="fill:#000000;fill-opacity:1;fill-rule:nonzero;stroke:none"
               d="m 0,0 -105.272,0 0,-70.151 -70.341,70.151 -24.397,0 0,-252.559 103.952,0 0,62.941 L 0,-285.676 0,0 Z m -0.908,-0.909 0,-282.574 -94.508,94.508 -1.551,1.55 0,-2.193 0,-62.032 -102.135,0 0,250.741 23.113,0 70.076,-69.886 1.55,-1.545 0,2.189 0,69.242 103.455,0 z" />
          </g>
          <g
             transform="translate(288.6081,436.1412)"
             id="g4268">
            <path
               inkscape:connector-curvature="0"
               id="path4270"
               style="fill:#000000;fill-opacity:1;fill-rule:nonzero;stroke:none"
               d="m 0,0 c -0.861,0 -1.712,0.007 -2.555,0.021 -20.896,0.35 -40.485,8.84 -55.158,23.908 -14.633,15.027 -22.713,34.859 -22.753,55.843 l -0.371,197.594 68.572,-66.336 0,-144.711 27.255,0 0,150.809 69.109,0 L 84.035,65.865 C 84.056,65.594 85.752,42.174 68.54,23.5 54.169,7.907 31.108,0 0,0" />
          </g>
          <g
             transform="translate(207.3148,714.5806)"
             id="g4272">
            <path
               inkscape:connector-curvature="0"
               id="path4274"
               style="fill:#000000;fill-opacity:1;fill-rule:nonzero;stroke:none"
               d="m 0,0 0.373,-198.669 c 0.082,-43.546 34.818,-79.475 78.358,-80.203 0.845,-0.014 1.699,-0.021 2.562,-0.021 89.94,0 84.489,66.319 84.489,66.319 l 0.064,151.717 -70.017,0 0,-150.808 -26.346,0 0,144.449 L 0,0 Z m 0.913,-2.147 67.661,-65.454 0,-144.064 0,-0.909 0.909,0 26.346,0 0.909,0 0,0.909 0,149.9 68.199,0 -0.063,-150.808 0,-0.038 0.003,-0.037 c 0.019,-0.232 1.711,-23.433 -15.367,-41.972 -14.282,-15.504 -37.233,-23.365 -68.217,-23.365 -0.858,0 -1.707,0.007 -2.547,0.021 -20.775,0.348 -40.251,8.79 -54.84,23.771 -14.55,14.941 -22.585,34.661 -22.624,55.526 L 0.913,-2.147 Z" />
          </g>
          <g
             transform="translate(224.6526,673.7921)"
             id="g4276">
            <path
               inkscape:connector-curvature="0"
               id="path4278"
               style="fill:#000000;fill-opacity:1;fill-rule:nonzero;stroke:none"
               d="m 0,0 0.297,-157.848 c 0.064,-34.16 27.601,-62.412 61.385,-62.977 0.751,-0.012 1.508,-0.019 2.273,-0.019 25.977,0 44.777,5.975 55.879,17.758 11.891,12.621 11.473,28.399 11.399,29.967 l -0.085,0.817 0.035,0.524 0.057,134.448 -35.488,0 0,-150.808 -60.868,0 0,154.392 L 0,0 Z m 61.23,-2.807 104.547,0 -0.071,-168.433 c 0.319,-5.821 0.514,-32.449 -20.17,-54.903 -17.863,-19.391 -45.311,-29.223 -81.581,-29.223 -0.96,0 -1.911,0.008 -2.852,0.024 -25.603,0.428 -49.593,10.82 -67.552,29.26 -17.864,18.345 -27.728,42.554 -27.777,68.169 l -0.45,239.49 95.906,-84.384 z" />
          </g>
          <path
             inkscape:connector-curvature="0"
             id="path4280"
             style="fill:#000000;fill-opacity:1;fill-rule:nonzero;stroke:none"
             d="m 747.276,566.387 -26.128,0 0,26.119 26.128,0 0,-26.119 z" />
          <g
             transform="translate(817.8563,577.4074)"
             id="g4282">
            <path
               inkscape:connector-curvature="0"
               id="path4284"
               style="fill:#000000;fill-opacity:1;fill-rule:nonzero;stroke:none"
               d="m 0,0 0,-0.018 c 0,-0.427 -0.009,-0.845 -0.018,-1.272 0,-0.345 -0.018,-0.691 -0.027,-1.036 -0.01,-0.081 -0.01,-0.163 -0.019,-0.236 0,-0.073 -0.009,-0.136 -0.009,-0.209 C -0.082,-2.953 -0.1,-3.125 -0.1,-3.298 -0.109,-3.389 -0.118,-3.48 -0.118,-3.57 -0.127,-3.752 -0.136,-3.925 -0.146,-4.106 -0.155,-4.197 -0.164,-4.288 -0.173,-4.388 -0.182,-4.552 -0.2,-4.715 -0.218,-4.879 c -0.055,-0.608 -0.118,-1.208 -0.191,-1.808 -0.018,-0.19 -0.036,-0.39 -0.063,-0.581 -0.046,-0.345 -0.091,-0.681 -0.146,-1.018 -0.1,-0.644 -0.2,-1.271 -0.327,-1.907 -0.064,-0.346 -0.136,-0.691 -0.2,-1.036 -0.072,-0.345 -0.145,-0.681 -0.218,-1.026 -0.018,-0.055 -0.027,-0.101 -0.036,-0.146 -0.055,-0.281 -0.118,-0.554 -0.191,-0.836 -0.054,-0.218 -0.1,-0.436 -0.164,-0.645 -0.036,-0.172 -0.081,-0.345 -0.127,-0.518 -0.072,-0.254 -0.136,-0.508 -0.209,-0.763 -0.09,-0.318 -0.181,-0.636 -0.272,-0.954 -0.209,-0.708 -0.427,-1.399 -0.663,-2.089 -0.082,-0.245 -0.164,-0.482 -0.255,-0.727 -0.045,-0.136 -0.091,-0.263 -0.136,-0.4 -0.027,-0.072 -0.054,-0.154 -0.082,-0.227 -0.045,-0.127 -0.091,-0.254 -0.145,-0.381 -0.046,-0.128 -0.1,-0.255 -0.146,-0.382 -0.127,-0.336 -0.254,-0.663 -0.381,-0.99 -0.027,-0.082 -0.064,-0.164 -0.091,-0.245 -0.018,-0.046 -0.036,-0.082 -0.054,-0.128 -0.128,-0.299 -0.255,-0.599 -0.373,-0.899 -0.009,-0.018 -0.018,-0.046 -0.027,-0.073 -0.118,-0.272 -0.236,-0.554 -0.364,-0.826 -0.036,-0.091 -0.072,-0.173 -0.109,-0.255 -0.099,-0.209 -0.19,-0.418 -0.29,-0.627 -0.064,-0.154 -0.137,-0.299 -0.2,-0.445 -0.073,-0.145 -0.136,-0.291 -0.209,-0.436 -0.1,-0.209 -0.2,-0.418 -0.309,-0.627 -0.036,-0.082 -0.082,-0.163 -0.118,-0.245 -0.191,-0.381 -0.382,-0.754 -0.572,-1.126 -0.246,-0.491 -0.509,-0.964 -0.764,-1.445 -0.054,-0.1 -0.108,-0.209 -0.163,-0.309 -0.055,-0.082 -0.1,-0.173 -0.146,-0.254 -0.145,-0.255 -0.29,-0.509 -0.436,-0.763 -0.09,-0.164 -0.19,-0.318 -0.281,-0.482 l 0,-0.009 c -0.1,-0.173 -0.2,-0.345 -0.3,-0.518 -0.036,-0.054 -0.073,-0.118 -0.109,-0.172 -0.018,-0.019 -0.027,-0.046 -0.045,-0.064 l 0,-0.018 c -0.155,-0.255 -0.309,-0.491 -0.455,-0.736 -0.281,-0.445 -0.554,-0.89 -0.836,-1.326 -0.127,-0.21 -0.272,-0.427 -0.408,-0.636 -0.073,-0.109 -0.146,-0.209 -0.218,-0.318 -0.182,-0.273 -0.364,-0.536 -0.546,-0.8 -0.172,-0.263 -0.354,-0.527 -0.535,-0.79 l -0.082,-0.109 c -0.027,-0.037 -0.055,-0.082 -0.082,-0.118 -0.227,-0.318 -0.454,-0.636 -0.681,-0.945 -0.118,-0.155 -0.236,-0.318 -0.346,-0.473 -0.109,-0.154 -0.218,-0.308 -0.336,-0.454 -0.018,-0.018 -0.036,-0.045 -0.054,-0.073 -0.018,-0.018 -0.036,-0.045 -0.055,-0.063 -0.045,-0.055 -0.082,-0.109 -0.118,-0.164 -0.381,-0.499 -0.772,-0.999 -1.153,-1.489 -0.137,-0.164 -0.264,-0.328 -0.391,-0.491 -2.099,-2.607 -4.343,-5.069 -6.714,-7.377 -2.507,-2.426 -5.142,-4.688 -7.904,-6.777 -0.018,-0.018 -0.036,-0.028 -0.054,-0.046 -1.463,-1.099 -2.962,-2.153 -4.488,-3.152 2.135,1.653 4.324,3.461 6.514,5.414 6.295,5.624 13.209,13.046 18.487,22.022 0.155,0.263 0.309,0.518 0.455,0.781 0.154,0.273 0.308,0.536 0.454,0.809 4.606,8.331 7.767,17.924 7.767,28.599 0,6.605 -0.981,13.309 -2.916,19.905 -1.263,4.324 -2.889,8.476 -4.851,12.437 -0.146,0.3 -0.3,0.6 -0.454,0.9 -0.146,0.299 -0.3,0.581 -0.455,0.872 -5.351,10.138 -12.964,18.96 -22.485,25.955 -13.645,10.03 -29.852,15.335 -46.85,15.335 l -270.438,0 0,-6.323 53.973,-53.637 43.38,0 0,-156.259 67.083,0 0,157.168 20.641,0 0,-157.168 60.904,0 0,-0.909 6.932,0 0,-0.009 -68.745,0 0,157.168 -18.824,0 0,-157.168 -68.899,0 0,156.26 -42.854,0 -53.591,53.264 0,0.009 -0.454,0.445 0,0.009 -0.455,0.446 0,0.009 -7.64,7.595 278.978,0 c 0.49,0 0.972,-0.009 1.462,-0.009 l 0.019,0 c 0.972,-0.028 1.944,-0.055 2.907,-0.109 0.481,-0.028 0.972,-0.055 1.453,-0.091 0.972,-0.073 1.935,-0.164 2.889,-0.264 2.399,-0.263 4.77,-0.636 7.114,-1.099 1.408,-0.291 2.789,-0.6 4.17,-0.954 0.463,-0.118 0.926,-0.245 1.381,-0.372 0.454,-0.128 0.908,-0.255 1.362,-0.391 l 0.009,0 c 1.454,-0.436 2.889,-0.899 4.307,-1.408 2.843,-1.027 5.623,-2.199 8.312,-3.525 l 0.009,0 c 0.936,-0.473 1.863,-0.945 2.771,-1.436 l 0.009,0 c 0.918,-0.508 1.817,-1.017 2.708,-1.544 2.698,-1.599 5.287,-3.352 7.758,-5.242 0.827,-0.627 1.635,-1.272 2.435,-1.944 l 0.009,0 c 1.19,-0.999 2.362,-2.026 3.498,-3.089 0.763,-0.718 1.508,-1.444 2.234,-2.18 1.899,-1.926 3.707,-3.952 5.397,-6.078 0.763,-0.936 1.481,-1.881 2.18,-2.844 0,-0.009 0,-0.009 0.009,-0.018 0.645,-0.881 1.272,-1.78 1.872,-2.689 0.599,-0.918 1.181,-1.844 1.753,-2.78 0.454,-0.745 0.89,-1.49 1.317,-2.253 0.155,-0.273 0.309,-0.554 0.455,-0.827 0.154,-0.281 0.308,-0.572 0.454,-0.854 2.344,-4.451 4.27,-9.175 5.723,-14.145 0.236,-0.79 0.455,-1.59 0.654,-2.389 0.182,-0.709 0.355,-1.417 0.518,-2.126 0.318,-1.426 0.609,-2.871 0.845,-4.333 0.118,-0.736 0.227,-1.463 0.327,-2.208 C -0.209,6.15 0,3.107 0,0" />
          </g>
          <g
             transform="translate(831.4743,602.4362)"
             id="g4286">
            <path
               inkscape:connector-curvature="0"
               id="path4288"
               style="fill:#000000;fill-opacity:1;fill-rule:nonzero;stroke:none"
               d="m 0,0 c -1.353,4.606 -3.034,9.067 -5.033,13.346 -0.145,0.327 -0.3,0.654 -0.454,0.972 -0.146,0.308 -0.3,0.617 -0.454,0.926 0,0.009 0,0.019 -0.009,0.019 -4.216,8.576 -9.712,16.416 -16.344,23.339 -0.146,0.154 -0.3,0.317 -0.454,0.472 -0.146,0.154 -0.3,0.318 -0.455,0.472 -3.588,3.652 -7.504,7.041 -11.719,10.139 -16.798,12.337 -36.721,18.86 -57.616,18.86 l -320.85,0 0.445,-0.445 0.464,-0.454 16.452,-16.353 0.909,-0.908 13.972,-13.882 0.909,-0.909 16.352,-16.253 0.455,-0.444 0.454,-0.455 46.478,-46.196 32.705,0 0,-156.26 190.991,0 0,17.261 -17.261,0 0,0.01 -6.932,0 0,0.908 -60.904,0 0,157.168 -20.641,0 0,-157.168 -67.083,0 0,156.259 -43.38,0 -53.973,53.638 0,6.323 270.438,0 c 16.998,0 33.205,-5.306 46.85,-15.336 9.521,-6.995 17.134,-15.816 22.485,-25.955 0.155,-0.291 0.309,-0.573 0.455,-0.872 0.154,-0.3 0.308,-0.6 0.454,-0.9 1.962,-3.961 3.588,-8.113 4.851,-12.437 1.935,-6.596 2.917,-13.3 2.917,-19.905 0,-10.674 -3.162,-20.268 -7.768,-28.599 -0.146,-0.272 -0.3,-0.536 -0.454,-0.808 -0.146,-0.264 -0.3,-0.518 -0.455,-0.782 -5.278,-8.976 -12.192,-16.398 -18.487,-22.021 -2.19,-1.954 -4.379,-3.762 -6.514,-5.415 -0.009,0 -0.009,-0.009 -0.018,-0.018 0,0 -0.009,0 -0.009,-0.009 -0.137,-0.082 -0.273,-0.173 -0.409,-0.264 -0.364,-0.245 -0.736,-0.472 -1.1,-0.708 -2.87,-1.79 -5.841,-3.416 -8.903,-4.861 -0.763,-0.363 -1.526,-0.708 -2.298,-1.044 l -0.009,0 c -0.772,-0.346 -1.554,-0.664 -2.335,-0.982 -1.181,-0.472 -2.38,-0.917 -3.579,-1.344 -0.4,-0.136 -0.8,-0.273 -1.209,-0.409 -0.663,-0.227 -1.335,-0.436 -2.017,-0.645 -0.154,-0.055 -0.318,-0.1 -0.49,-0.155 -0.164,-0.045 -0.327,-0.099 -0.491,-0.145 l -0.009,0 c -3.952,-1.172 -8.013,-2.062 -12.128,-2.653 l -0.009,0 c -1.181,-0.172 -2.371,-0.327 -3.562,-0.454 -0.008,0.009 -0.008,0.009 -0.018,0 -2.135,-0.218 -4.279,-0.363 -6.441,-0.427 l 0.018,-0.027 11.665,-11.683 0.909,-0.909 3.07,-3.079 c 0.364,0.063 0.736,0.127 1.1,0.199 0.181,0.037 0.363,0.073 0.545,0.11 0.182,0.027 0.354,0.063 0.536,0.108 6.141,1.209 12.119,2.971 17.87,5.233 0.154,0.055 0.309,0.118 0.454,0.182 0.154,0.055 0.309,0.118 0.463,0.182 12.465,5.042 23.839,12.473 33.405,21.912 0.155,0.146 0.3,0.3 0.455,0.455 0.154,0.154 0.308,0.308 0.454,0.463 3.888,3.934 7.468,8.204 10.684,12.791 2.107,2.998 3.997,6.042 5.66,9.131 0,0 0.009,0 0.009,0.009 0.154,0.281 0.308,0.563 0.454,0.854 0.154,0.29 0.309,0.581 0.454,0.872 5.769,11.211 8.676,22.921 8.676,34.931 C 3.643,-16.68 2.417,-8.267 0,0" />
          </g>
          <g
             transform="translate(1548.666,653.7238)"
             id="g4290">
            <path
               inkscape:connector-curvature="0"
               id="path4292"
               style="fill:#ffffff;fill-opacity:1;fill-rule:nonzero;stroke:none"
               d="m 0,0 0,-136.825 c 0,-43.84 34.968,-80.03 78.802,-80.737 0.834,-0.013 1.677,-0.02 2.529,-0.02 l 13.835,0 69.85,-69.85 0,217.542 -69.149,0 0,-86.824 -26.346,0 0,95.391 95.495,0 0,61.323 L 0,0 Z" />
          </g>
          <g
             transform="translate(1548.6556,653.7273)"
             id="g4294">
            <path
               inkscape:connector-curvature="0"
               id="path4296"
               style="fill:#000000;fill-opacity:1;fill-rule:nonzero;stroke:none"
               d="m 0,0 0,-136.825 c 0,-43.84 34.968,-80.03 78.802,-80.737 0.834,-0.013 1.677,-0.02 2.529,-0.02 l 13.835,0 69.85,-69.85 0,217.542 -69.149,0 0,-86.824 -26.346,0 0,95.391 95.495,0 0,61.323 L 0,0 Z" />
          </g>
          <g
             transform="translate(1565.9164,636.4662)"
             id="g4298">
            <path
               inkscape:connector-curvature="0"
               id="path4300"
               style="fill:#000000;fill-opacity:1;fill-rule:nonzero;stroke:none"
               d="m 0,0 0,-119.565 c 0,-34.451 27.732,-62.927 61.82,-63.477 0.739,-0.012 1.492,-0.018 2.25,-0.018 l 20.985,0 45.439,-45.439 0,158.609 -34.627,0 0,-86.824 -60.868,0 0,129.914 95.495,0 0,26.8 L 0,0 Z m 165.016,-311.842 -94.261,94.259 -6.685,0 c -0.945,0 -1.88,0.008 -2.804,0.023 -25.758,0.416 -49.883,10.862 -67.935,29.415 -17.962,18.46 -27.853,42.815 -27.853,68.58 l 0,154.087 199.538,0 0,-346.364 z" />
          </g>
          <g
             transform="translate(207.3148,714.5806)"
             id="g4302">
            <path
               inkscape:connector-curvature="0"
               id="path4304"
               style="fill:#ffffff;fill-opacity:1;fill-rule:nonzero;stroke:none"
               d="m 0,0 0.373,-198.669 c 0.082,-43.546 34.818,-79.475 78.358,-80.203 0.845,-0.014 1.699,-0.021 2.562,-0.021 89.94,0 84.489,66.319 84.489,66.319 l 0.064,151.717 -70.017,0 0,-150.808 -26.346,0 0,144.449 L 0,0 Z" />
          </g>
          <g
             transform="translate(381.2736,653.7238)"
             id="g4306">
            <path
               inkscape:connector-curvature="0"
               id="path4308"
               style="fill:#ffffff;fill-opacity:1;fill-rule:nonzero;stroke:none"
               d="m 0,0 0,-218.036 166.253,0 0,61.777 -96.3,0 L 69.953,0 0,0 Z" />
          </g>
          <path
             inkscape:connector-curvature="0"
             id="path4310"
             style="fill:#ffffff;fill-opacity:1;fill-rule:nonzero;stroke:none"
             d="m 747.276,566.387 -26.128,0 0,26.119 26.128,0 0,-26.119 z" />
          <path
             inkscape:connector-curvature="0"
             id="path4312"
             style="fill:#ffffff;fill-opacity:1;fill-rule:nonzero;stroke:none"
             d="m 747.276,566.387 -26.128,0 0,26.119 26.128,0 0,-26.119 z m 66.755,30.934 c -1.262,4.325 -2.889,8.477 -4.851,12.437 -0.145,0.3 -0.3,0.6 -0.454,0.9 -0.145,0.3 -0.3,0.581 -0.454,0.872 -5.351,10.139 -12.964,18.96 -22.485,25.955 -13.646,10.03 -29.853,15.336 -46.851,15.336 l -270.438,0 0,-6.323 53.973,-53.637 43.38,0 0,-156.26 67.083,0 0,157.168 20.641,0 0,-157.168 60.905,0 0,-0.908 6.931,0 0,-0.009 86.688,0 -0.917,0.917 -53.283,53.374 -3.071,3.079 -0.908,0.909 -11.665,11.683 -0.018,0.027 c 2.162,0.064 4.306,0.209 6.441,0.427 0.009,0.009 0.009,0.009 0.018,0 1.19,0.127 2.38,0.282 3.561,0.455 l 0.009,0 c 4.116,0.59 8.177,1.48 12.129,2.652 l 0.009,0 c 0.163,0.046 0.327,0.1 0.49,0.146 0.173,0.054 0.336,0.1 0.491,0.154 0.681,0.209 1.353,0.418 2.017,0.645 0.408,0.136 0.808,0.273 1.208,0.409 1.199,0.427 2.398,0.872 3.579,1.345 0.782,0.318 1.563,0.645 2.335,0.981 l 0.009,0 c 0.772,0.336 1.536,0.69 2.299,1.044 3.061,1.445 6.032,3.071 8.903,4.861 0.363,0.236 0.736,0.463 1.099,0.709 0.136,0.09 0.273,0.181 0.409,0.263 0,0.009 0.009,0.009 0.009,0.009 0.009,0.009 0.009,0.018 0.018,0.018 2.135,1.654 4.325,3.462 6.514,5.415 6.296,5.623 13.209,13.046 18.488,22.022 0.154,0.263 0.309,0.517 0.454,0.781 0.154,0.272 0.309,0.536 0.454,0.808 4.606,8.331 7.768,17.925 7.768,28.6 0,6.604 -0.981,13.309 -2.917,19.904" />
          <g
             transform="translate(817.847,577.4074)"
             id="g4314">
            <path
               inkscape:connector-curvature="0"
               id="path4316"
               style="fill:#ffffff;fill-opacity:1;fill-rule:nonzero;stroke:none"
               d="m 0,0 c 0,-0.863 -0.018,-1.717 -0.054,-2.562 0,-0.073 -0.009,-0.136 -0.009,-0.209 -0.01,-0.182 -0.028,-0.354 -0.028,-0.527 -0.009,-0.091 -0.018,-0.182 -0.018,-0.272 0,-0.091 -0.009,-0.182 -0.018,-0.264 -0.027,-0.345 -0.055,-0.699 -0.082,-1.045 -0.054,-0.608 -0.118,-1.208 -0.191,-1.808 -0.145,-1.181 -0.327,-2.352 -0.536,-3.506 -0.063,-0.346 -0.136,-0.691 -0.2,-1.036 -0.072,-0.345 -0.145,-0.681 -0.217,-1.026 -0.019,-0.055 -0.028,-0.101 -0.037,-0.146 -0.118,-0.49 -0.236,-0.99 -0.354,-1.481 -0.382,-1.462 -0.8,-2.907 -1.281,-4.324 -0.127,-0.372 -0.254,-0.754 -0.391,-1.127 -0.072,-0.209 -0.145,-0.408 -0.218,-0.608 -0.045,-0.128 -0.1,-0.255 -0.145,-0.382 -0.127,-0.336 -0.255,-0.663 -0.382,-0.99 -0.036,-0.082 -0.072,-0.164 -0.1,-0.245 -0.018,-0.046 -0.036,-0.082 -0.045,-0.128 -0.127,-0.299 -0.255,-0.599 -0.373,-0.899 -0.018,-0.018 -0.027,-0.046 -0.036,-0.073 -0.154,-0.363 -0.309,-0.726 -0.472,-1.081 -0.091,-0.209 -0.191,-0.418 -0.282,-0.627 -0.073,-0.154 -0.136,-0.299 -0.209,-0.445 -0.163,-0.363 -0.336,-0.718 -0.509,-1.063 -0.036,-0.082 -0.081,-0.163 -0.118,-0.245 -0.191,-0.381 -0.381,-0.754 -0.572,-1.126 -0.245,-0.491 -0.509,-0.964 -0.763,-1.445 -0.055,-0.1 -0.118,-0.209 -0.173,-0.309 -0.045,-0.082 -0.091,-0.173 -0.136,-0.254 -0.145,-0.255 -0.291,-0.509 -0.436,-0.763 -0.091,-0.164 -0.191,-0.318 -0.282,-0.482 l 0,-0.009 c -0.109,-0.173 -0.209,-0.345 -0.309,-0.518 -0.036,-0.054 -0.072,-0.118 -0.1,-0.172 -0.018,-0.019 -0.027,-0.046 -0.045,-0.064 l 0,-0.018 c -0.155,-0.255 -0.309,-0.491 -0.454,-0.736 -0.282,-0.445 -0.555,-0.89 -0.836,-1.326 -0.136,-0.21 -0.282,-0.427 -0.418,-0.636 -0.073,-0.109 -0.136,-0.209 -0.209,-0.318 -0.182,-0.273 -0.363,-0.536 -0.545,-0.8 -0.173,-0.263 -0.354,-0.527 -0.545,-0.79 -0.027,-0.037 -0.055,-0.073 -0.073,-0.109 -0.027,-0.037 -0.054,-0.082 -0.082,-0.118 -0.227,-0.318 -0.454,-0.636 -0.681,-0.945 -0.118,-0.155 -0.236,-0.318 -0.345,-0.473 -0.118,-0.154 -0.227,-0.299 -0.345,-0.454 -0.018,-0.027 -0.028,-0.045 -0.046,-0.073 -0.018,-0.018 -0.036,-0.045 -0.054,-0.063 -0.046,-0.055 -0.082,-0.109 -0.119,-0.164 -0.381,-0.499 -0.772,-0.999 -1.153,-1.489 -0.137,-0.164 -0.264,-0.328 -0.391,-0.491 -2.098,-2.607 -4.343,-5.069 -6.714,-7.377 -2.507,-2.426 -5.142,-4.688 -7.903,-6.777 -0.019,-0.018 -0.037,-0.028 -0.055,-0.046 -1.463,-1.099 -2.962,-2.153 -4.488,-3.152 2.135,1.653 4.325,3.461 6.514,5.414 6.296,5.624 13.209,13.046 18.488,22.022 0.154,0.263 0.309,0.518 0.454,0.781 0.154,0.273 0.309,0.536 0.454,0.809 4.606,8.331 7.768,17.924 7.768,28.599 0,6.605 -0.981,13.309 -2.917,19.905 -1.262,4.324 -2.889,8.476 -4.851,12.437 -0.145,0.3 -0.3,0.6 -0.454,0.9 -0.145,0.299 -0.3,0.581 -0.454,0.872 -5.351,10.138 -12.964,18.96 -22.485,25.955 -13.646,10.03 -29.853,15.335 -46.851,15.335 l -270.438,0 0,-6.323 53.973,-53.637 43.38,0 0,-156.259 67.083,0 0,157.168 20.641,0 0,-157.168 60.905,0 0,-0.909 6.922,0 0,-0.009 -68.745,0 0,157.168 -18.823,0 0,-157.168 -68.909,0 0,156.26 -42.835,0 -53.592,53.264 -0.454,0.445 0,0.009 -0.454,0.446 0,0.009 -7.641,7.604 278.978,0 c 0.491,0 0.972,-0.009 1.463,-0.009 l 0.018,0 c 0.972,-0.028 1.944,-0.055 2.907,-0.109 0.482,-0.028 0.972,-0.055 1.454,-0.091 0.972,-0.073 1.935,-0.164 2.889,-0.264 2.398,-0.263 4.769,-0.636 7.113,-1.099 1.408,-0.291 2.789,-0.6 4.17,-0.954 0.463,-0.118 0.927,-0.245 1.381,-0.372 0.454,-0.128 0.908,-0.255 1.363,-0.391 l 0.009,0 c 1.453,-0.436 2.889,-0.899 4.306,-1.408 2.843,-1.027 5.623,-2.199 8.312,-3.525 l 0.01,0 c 0.935,-0.473 1.862,-0.945 2.77,-1.436 l 0.01,0 c 0.917,-0.508 1.817,-1.017 2.707,-1.544 2.698,-1.599 5.287,-3.352 7.758,-5.242 0.827,-0.636 1.636,-1.281 2.435,-1.944 l 0.009,0 c 1.19,-0.999 2.362,-2.026 3.498,-3.089 0.763,-0.718 1.508,-1.444 2.235,-2.18 1.899,-1.926 3.706,-3.952 5.396,-6.078 0.745,-0.927 1.472,-1.881 2.181,-2.844 0,-0.009 0,-0.009 0.008,-0.018 0.637,-0.881 1.263,-1.78 1.872,-2.689 0.6,-0.918 1.181,-1.844 1.753,-2.78 0.455,-0.754 0.891,-1.517 1.318,-2.28 0.154,-0.273 0.299,-0.545 0.454,-0.818 0.154,-0.291 0.309,-0.572 0.454,-0.863 2.335,-4.442 4.261,-9.166 5.714,-14.118 0.228,-0.79 0.455,-1.59 0.664,-2.389 0.182,-0.709 0.354,-1.417 0.518,-2.126 0.318,-1.426 0.599,-2.871 0.844,-4.333 C -0.808,10.584 -0.7,9.857 -0.599,9.112 -0.209,6.15 0,3.107 0,0" />
          </g>
          <g
             transform="translate(1287.5331,577.411)"
             id="g4318">
            <path
               inkscape:connector-curvature="0"
               id="path4320"
               style="fill:#ffffff;fill-opacity:1;fill-rule:nonzero;stroke:none"
               d="M 0,0 C 0,-13.789 -5.069,-25.821 -12.13,-35.891 -28.074,-58.629 -54.447,-71.77 -82.218,-71.77 l -14.227,0 0,-69.954 -68.745,0 0,218.037 86.27,0 c 34.904,0 66.147,-22.649 75.967,-56.145 C -1.099,13.836 0,7.095 0,0" />
          </g>
          <path
             inkscape:connector-curvature="0"
             id="path4322"
             style="fill:#ffffff;fill-opacity:1;fill-rule:nonzero;stroke:none"
             d="m 721.411,435.684 -6.932,0 0,0.009 6.932,0 0,-0.009 z" />
          <g
             transform="translate(1171.2881,543.2562)"
             id="g4324">
            <path
               inkscape:connector-curvature="0"
               id="path4326"
               style="fill:#ffffff;fill-opacity:1;fill-rule:nonzero;stroke:none"
               d="m 0,0 0.038,-107.569 107.372,0 L 0,0 Z" />
          </g>
          <g
             transform="translate(939.4373,653.7238)"
             id="g4328">
            <path
               inkscape:connector-curvature="0"
               id="path4330"
               style="fill:#ffffff;fill-opacity:1;fill-rule:nonzero;stroke:none"
               d="m 0,0 c 27.283,0 40.105,-14.728 46.102,-27.615 3.534,-7.592 5.201,-15.92 5.201,-24.294 l 0,-166.127 -68.918,0 0,69.044 -27.018,0 0,-69.044 -69.281,0 0,218.036 L 0,0 Z" />
          </g>
          <path
             inkscape:connector-curvature="0"
             id="path4332"
             style="fill:#ffffff;fill-opacity:1;fill-rule:nonzero;stroke:none"
             d="m 1295.477,435.687 69.771,0 0,218.036 -69.771,0 0,-218.036 z" />
          <g
             transform="translate(1374.4833,653.7238)"
             id="g4334">
            <path
               inkscape:connector-curvature="0"
               id="path4336"
               style="fill:#ffffff;fill-opacity:1;fill-rule:nonzero;stroke:none"
               d="m 0,0 0,-218.036 69.43,0 0,87.352 96.058,-96.058 0,226.742 -70.749,0 0,-94.482 L 0,0 Z" />
          </g>
          <g
             transform="translate(1548.6556,653.7238)"
             id="g4338">
            <path
               inkscape:connector-curvature="0"
               id="path4340"
               style="fill:#ffffff;fill-opacity:1;fill-rule:nonzero;stroke:none"
               d="m 0,0 0,-136.825 c 0,-43.84 34.968,-80.03 78.802,-80.737 0.834,-0.013 1.677,-0.02 2.529,-0.02 l 13.835,0 69.85,-69.85 0,217.542 -69.149,0 0,-86.824 -26.346,0 0,95.391 95.495,0 0,61.323 L 0,0 Z" />
          </g>
          <path
             inkscape:connector-curvature="0"
             id="path4342"
             style="fill:#000000;fill-opacity:1;fill-rule:nonzero;stroke:none"
             d="m 895.341,566.391 26.124,0 0,26.119 -26.124,0 0,-26.119 z" />
          <path
             inkscape:connector-curvature="0"
             id="path4344"
             style="fill:#000000;fill-opacity:1;fill-rule:nonzero;stroke:none"
             d="m 1191.333,566.391 26.124,0 0,26.119 -26.124,0 0,-26.119 z" />
          <path
             inkscape:connector-curvature="0"
             id="path4346"
             style="fill:#000000;fill-opacity:1;fill-rule:nonzero;stroke:none"
             d="m 747.276,566.387 -26.128,0 0,26.119 26.128,0 0,-26.119 z" />
          <g
             transform="translate(510.6987,730.6963)"
             id="g4348">
            <path
               inkscape:connector-curvature="0"
               id="path4350"
               style="fill:#0d9939;fill-opacity:1;fill-rule:nonzero;stroke:none"
               d="m 0,0 c 16.981,40.008 39.258,77.576 66.346,111.856 29.888,37.825 65.086,70.964 104.615,98.496 82.034,57.137 178.438,87.337 278.791,87.337 99.944,0 196.028,-29.977 277.863,-86.69 C 803.527,158.39 862.407,86.399 898.614,2.128 l -78.29,-0.186 c -19.616,37.724 -44.933,72.217 -75.321,102.604 -38.369,38.369 -83.03,68.487 -132.742,89.517 -51.435,21.75 -106.11,32.778 -162.509,32.778 -45.898,0 -90.958,-7.376 -133.929,-21.923 C 274.261,190.85 235.286,170.331 199.98,143.931 165.026,117.782 134.486,86.503 109.207,50.96 97.709,34.79 87.322,17.734 78.277,0.187 L 0,0 Z m 449.752,-679.082 c -101.53,0 -198.869,30.857 -281.494,89.235 -39.804,28.123 -75.119,61.936 -104.964,100.496 -27.169,35.104 -49.328,73.538 -65.99,114.424 l 77.536,0.187 c 20.181,-41.104 46.963,-78.492 79.668,-111.207 38.36,-38.36 83.021,-68.475 132.744,-89.509 51.41,-21.749 106.082,-32.777 162.5,-32.777 56.422,0 111.098,11.028 162.509,32.777 49.722,21.034 94.383,51.149 132.742,89.508 33.181,33.189 60.255,71.175 80.544,112.99 l 77.528,0.18 c -16.544,-41.158 -38.645,-79.858 -65.818,-115.22 -29.827,-38.816 -65.179,-72.861 -105.076,-101.189 -82.825,-58.81 -180.488,-89.895 -282.429,-89.895" />
          </g>
          <g
             transform="translate(1428.3477,367.9511)"
             id="g4352">
            <path
               inkscape:connector-curvature="0"
               id="path4354"
               style="fill:#000000;fill-opacity:1;fill-rule:nonzero;stroke:none"
               d="m 0,0 -98.425,-0.227 c -20.087,-43.062 -47.387,-81.991 -81.292,-115.905 -37.456,-37.457 -81.055,-66.846 -129.568,-87.369 -50.184,-21.231 -103.549,-31.987 -158.612,-31.987 -55.054,0 -108.419,10.756 -158.603,31.987 -48.514,20.523 -92.112,49.912 -129.569,87.369 -33.441,33.451 -60.459,71.78 -80.464,114.152 l -98.435,-0.237 c 70.662,-189.31 253.132,-324.12 467.071,-324.12 C -253.113,-326.337 -70.062,-190.473 0,0 m -467.897,670.435 c -211.532,0 -392.275,-131.776 -464.627,-317.725 l 99.307,0.237 c 9.475,19.087 20.477,37.456 32.923,54.963 24.684,34.704 54.5,65.238 88.614,90.757 34.468,25.774 72.506,45.797 113.061,59.524 41.945,14.2 85.934,21.395 130.722,21.395 55.063,0 108.428,-10.765 158.612,-31.987 48.513,-20.523 92.112,-49.922 129.568,-87.378 31.162,-31.162 56.754,-66.583 76.277,-105.548 l 99.325,0.236 C -77.03,539.686 -257.201,670.435 -467.897,670.435 M -29.638,-20.068 c -15.446,-35.193 -35.117,-68.423 -58.683,-99.092 -29.22,-38.026 -63.852,-71.377 -102.936,-99.129 -81.124,-57.601 -176.785,-88.048 -276.64,-88.048 -99.452,0 -194.795,30.224 -275.723,87.403 -38.993,27.55 -73.589,60.674 -102.826,98.449 -23.549,30.426 -43.255,63.404 -58.787,98.34 l 56.252,0.135 c 20.32,-39.888 46.777,-76.262 78.77,-108.264 39.273,-39.273 85.003,-70.107 135.918,-91.646 52.65,-22.274 108.634,-33.568 166.396,-33.568 57.768,0 113.755,11.294 166.405,33.568 50.915,21.539 96.644,52.373 135.919,91.648 32.479,32.487 59.244,69.466 79.689,110.074 l 56.246,0.13 m -438.259,670.503 c 97.899,0 192.013,-29.362 272.167,-84.91 38.633,-26.774 73.074,-59.012 102.368,-95.817 23.34,-29.326 43.078,-61.138 58.887,-94.871 l -56.836,-0.136 c -19.665,36.526 -44.607,70.005 -74.263,99.662 -39.284,39.283 -85.014,70.121 -135.921,91.656 -52.671,22.274 -108.657,33.567 -166.402,33.567 -46.99,0 -93.129,-7.553 -137.134,-22.45 -42.563,-14.407 -82.475,-35.419 -118.629,-62.454 -35.783,-26.768 -67.05,-58.791 -92.934,-95.183 -10.586,-14.891 -20.255,-30.515 -28.832,-46.581 l -56.834,-0.136 c 15.731,33.991 35.44,66.054 58.803,95.62 29.28,37.055 63.761,69.518 102.485,96.49 80.348,55.962 174.776,85.543 273.075,85.543" />
          </g>
        </g>
      </g>
    </g>
  </g>
</svg>
